<svg width="1226" height="479" viewBox="0 0 1226 479" fill="none" xmlns="http://www.w3.org/2000/svg">
<path d="M462.4 286.634C448.72 299.461 446.4 319.311 449.3 336.699C449.38 337.091 450.02 336.986 450.02 336.612C450.02 332.656 449.89 328.738 449.9 324.829C449.98 324.647 450.04 324.475 450.12 324.302C453.69 321.811 457 319.014 459 315.182C461.29 310.871 462.19 306.024 463.93 301.521C464.1 301.09 463.62 301.214 463.3 301.444C454.98 307.317 452.3 313.649 449.94 322.099C449.987 317.677 450.472 313.27 451.39 308.936C453.19 300.917 456.74 292.956 462.76 287.007C462.812 286.961 462.842 286.898 462.845 286.831C462.848 286.763 462.823 286.698 462.775 286.648C462.727 286.598 462.661 286.569 462.591 286.566C462.52 286.564 462.452 286.588 462.4 286.634Z" fill="#A6A6A6"/>
<path d="M465 288.128C467.35 288.205 468.83 291.807 470.66 292.861C470.853 293.011 471.076 293.12 471.316 293.182C471.556 293.243 471.806 293.256 472.051 293.219C472.297 293.182 472.531 293.096 472.739 292.967C472.947 292.837 473.125 292.667 473.26 292.468C475.08 290.035 472.58 287.036 470.26 285.359C471.94 286.021 473.33 287.18 475.14 287.515C475.371 287.585 475.616 287.608 475.857 287.581C476.098 287.554 476.33 287.478 476.538 287.359C476.746 287.239 476.925 287.078 477.064 286.887C477.202 286.696 477.296 286.479 477.34 286.25C478.13 282.936 473.8 281.46 470.82 281.393C472.26 280.435 476.4 277.82 474.2 276.536C472 275.253 467.12 278.979 465.54 280.205C463.21 282.016 460.44 284.718 460.33 287.544C460.15 290.849 463.16 288.818 465 288.128Z" fill="#DBDBDB"/>
<path d="M464.29 288.684C467.29 287.371 473.08 289.258 473.57 288.166C474.57 285.944 469.95 284.42 467.45 284.123C469.75 283.53 474.15 282.581 474.02 280.464C473.85 277.868 467.27 280.1 463.93 282.543C459.74 285.628 459.76 288.607 460.46 289.201C461.41 290.015 463.79 288.894 464.29 288.684Z" fill="#EBEBEB"/>
<path d="M431.24 285.359C445.42 297.679 448.51 317.433 446.31 334.917C446.31 335.309 445.61 335.233 445.6 334.859C445.44 330.903 445.41 326.975 445.24 323.076L445.01 322.549C441.35 320.202 437.95 317.51 435.77 313.735C433.31 309.52 432.22 304.701 430.3 300.266C430.12 299.844 430.6 299.95 430.92 300.16C439.47 305.736 442.38 311.963 445.1 320.326C444.864 315.907 444.194 311.52 443.1 307.221C440.98 299.27 437.1 291.452 430.86 285.723C430.66 285.484 431 285.139 431.24 285.359Z" fill="#A6A6A6"/>
<path d="M428.73 286.95C426.38 287.112 425.05 290.782 423.26 291.883C423.074 292.041 422.856 292.159 422.619 292.23C422.382 292.301 422.132 292.323 421.885 292.295C421.639 292.267 421.401 292.19 421.188 292.067C420.976 291.945 420.792 291.781 420.65 291.586C418.74 289.22 421.11 286.135 423.39 284.373C421.74 285.101 420.39 286.289 418.6 286.701C418.369 286.781 418.123 286.813 417.878 286.793C417.634 286.774 417.396 286.704 417.182 286.589C416.969 286.473 416.784 286.314 416.64 286.124C416.496 285.933 416.397 285.715 416.35 285.484C415.42 282.198 419.7 280.569 422.67 280.387C421.19 279.487 416.95 277.025 419.1 275.664C421.25 274.304 426.27 277.849 427.9 279.017C430.3 280.742 433.18 283.338 433.39 286.164C433.66 289.498 430.57 287.572 428.73 286.95Z" fill="#DBDBDB"/>
<path d="M429.43 287.477C426.38 286.279 420.67 288.377 420.14 287.304C419.06 285.12 423.61 283.472 426.14 283.041C423.82 282.533 419.39 281.738 419.44 279.621C419.5 277.025 426.17 279.008 429.6 281.336C433.91 284.267 434 287.237 433.33 287.86C432.37 288.712 429.94 287.678 429.43 287.477Z" fill="#EBEBEB"/>
<path d="M445.74 317.903C446.702 324.494 448.176 331.007 450.15 337.388C450.179 337.513 450.257 337.622 450.369 337.692C450.481 337.762 450.617 337.787 450.748 337.762C450.879 337.737 450.994 337.664 451.07 337.558C451.145 337.452 451.174 337.323 451.15 337.197C450.22 331.2 448.52 325.298 447.59 319.301C446.568 313.226 446.203 307.065 446.5 300.917C447.09 290.801 449.96 280.033 456.85 272.12C457.01 271.928 456.68 271.67 456.53 271.842C442.73 287.256 444.93 306.148 444.94 307.844C442.94 301.463 440.94 294.144 433.58 287.649C433.26 287.371 433.01 287.505 433.07 287.984C434.38 299.854 437.81 305.995 445 312.308C445.18 314.224 445.43 316.063 445.74 317.903Z" fill="#A6A6A6"/>
<path d="M457 273.892C459.48 272.838 462.91 275.866 465.36 276.067C465.639 276.136 465.93 276.146 466.213 276.098C466.496 276.049 466.765 275.943 467.002 275.785C467.238 275.628 467.436 275.423 467.583 275.186C467.729 274.949 467.82 274.684 467.85 274.409C468.46 271.008 464.3 269.102 460.98 268.498C463.07 268.374 465.12 268.901 467.17 268.374C467.445 268.332 467.709 268.235 467.943 268.09C468.177 267.944 468.377 267.753 468.529 267.53C468.682 267.306 468.784 267.054 468.829 266.79C468.874 266.527 468.86 266.257 468.79 265.998C467.88 262.166 462.6 262.741 459.48 264.082C460.48 262.386 463.39 257.683 460.48 257.376C457.57 257.07 454.42 263.325 453.43 265.366C451.96 268.364 450.5 272.513 451.88 275.492C453.4 279.046 455.45 275.482 457 273.892Z" fill="#DBDBDB"/>
<path d="M456.55 274.793C458.99 271.986 465.98 271.152 465.91 269.782C465.78 267.004 460.19 267.646 457.45 268.547C459.51 266.822 463.58 263.709 462.33 261.572C460.79 258.967 455.13 264.446 452.96 268.604C450.23 273.825 451.82 276.9 452.85 277.178C454.27 277.571 456.15 275.262 456.55 274.793Z" fill="#EBEBEB"/>
<path d="M436.66 321.466L430.58 366.013H467.58C466.82 362.066 459.93 321.418 459.93 321.418L436.66 321.466Z" fill="#DBDBDB"/>
<path d="M797.8 191.246H824.28V180.526H797.8V191.246Z" fill="#EBEBEB"/>
<path d="M812.57 177.728H839.05V167.008H812.57V177.728Z" fill="#EBEBEB"/>
<path d="M783.02 177.728H809.5V167.008H783.02V177.728Z" fill="#EBEBEB"/>
<path d="M401.72 329.504H428.2V318.784H401.72V329.504Z" fill="#EBEBEB"/>
<path d="M386.95 315.987H413.43V305.267H386.95V315.987Z" fill="#EBEBEB"/>
<path d="M812.57 329.494H839.05V318.774H812.57V329.494Z" fill="#EBEBEB"/>
<path d="M501.91 91.259H475.43V101.979H501.91V91.259Z" fill="#EBEBEB"/>
<path d="M487.13 104.776H460.65V115.496H487.13V104.776Z" fill="#EBEBEB"/>
<path d="M420.95 365.975L468.96 365.745L516.97 365.659L613 365.496L709.02 365.659L757.04 365.745L805.05 365.975L757.04 366.215L709.02 366.291L613 366.454L516.97 366.291L468.96 366.205L420.95 365.975Z" fill="#263238"/>
<path d="M643.27 242.135C643.235 242.354 643.281 242.578 643.4 242.768C643.518 242.959 643.702 243.104 643.92 243.179C644.97 243.332 646.25 243.495 647.67 243.687C651.9 234.892 656.22 227.966 655 230.706C653.136 235.01 651.914 239.544 651.37 244.175C653.02 244.386 656.87 244.836 658.79 245.056C663.21 229.364 668.08 217.83 667.51 221.451C665.19 236.061 665.6 240.832 666.13 245.938C684.06 248.026 707.61 250.498 724.68 251.906C727.47 243.284 730.08 233.857 730.32 234.547C732.19 239.673 732.15 246.915 731.68 252.471C737.12 252.883 741.48 253.104 744.15 253.104C744.15 253.104 746.15 245.804 746.51 243.39C747.581 237.212 747.52 230.904 746.33 224.747C745.1 218.462 742.48 212.81 740.03 207.033C740.023 206.998 740.013 206.962 740 206.928C738.375 203.143 737.207 199.193 736.52 195.154C736.513 195.123 736.513 195.09 736.52 195.058C736.063 192.113 735.865 189.136 735.93 186.159C736.15 175.257 731.05 165.456 721.36 161.912C704.81 145.712 682.08 153.146 675.66 166.845C673.15 172.986 670.66 181.005 668.49 187.184C668.496 187.194 668.499 187.205 668.499 187.217C668.499 187.229 668.496 187.241 668.49 187.251C667.671 189.674 666.699 192.048 665.58 194.359C659.63 205.395 648.17 211.086 643.27 242.135Z" fill="#263238"/>
<path d="M725.35 165.131C731.56 169.068 735.1 174.442 735.35 182.432C735.51 187.088 735.35 191.619 736.72 196.093C738.09 200.711 740.57 204.6 743.14 208.48C747.21 214.65 749.89 220.704 749.88 228.521C749.87 236.339 748.64 245.765 745.35 252.941C745.35 252.989 745.27 252.941 745.29 252.941C748.09 245.612 749.11 235.285 748.54 227.372C747.91 218.673 743.67 212.944 739.41 206.076C735.978 200.623 734.079 194.411 733.9 188.046C733.78 184.099 734.22 180.027 733.02 176.234C731.6 171.712 728.2 168.656 724.8 165.926C724.35 165.533 724.88 164.834 725.35 165.131Z" fill="#263238"/>
<path d="M653.36 205.788C658.54 199.954 663.83 195.039 667.25 187.586C670.36 180.794 672.45 173.542 675.6 166.769C675.6 166.654 675.81 166.711 675.76 166.836C670.76 178.907 668.84 191.303 660.1 201.142C655.34 206.487 650.63 211.421 647.21 217.983C643.713 224.904 641.526 232.364 640.75 240.017C640.75 240.286 640.38 240.247 640.38 240.017C640.375 227.501 644.971 215.383 653.36 205.788Z" fill="#263238"/>
<path d="M603 354.46C603 354.46 651.27 366.914 659.25 365.573C667.23 364.232 694.17 329.494 700.15 316.897C706.13 304.299 716.06 241.627 714.15 234.729C712.24 227.832 702.25 227.736 693.82 245.516C685.39 263.297 665.46 302.383 661.91 305.602C658.36 308.821 599.11 351.126 603 354.46Z" fill="#DD6A57"/>
<path d="M655.06 361.453C647.66 357.746 638.65 348.75 632.51 347.812C631.008 347.53 629.451 347.719 628.07 348.35C626.689 348.982 625.556 350.022 624.84 351.318C624.84 351.318 622.02 345.311 616.3 345.34C613.37 345.34 610.81 349.862 610.81 349.862C610.81 349.862 608.32 345.139 603.25 345.464C599.2 345.723 597.25 350.207 597.25 350.207C597.25 350.207 592.67 346.739 588.63 348.291C580.45 351.385 579.09 384.695 591.69 390.328C597.56 392.953 597.43 384.8 597.43 384.8C597.43 384.8 600.57 396.488 607.73 396.928C614.89 397.369 614.06 386.793 614.06 386.793C614.06 386.793 617.21 398.087 624.68 397.829C632.46 397.57 629.74 387.118 629.74 387.118C629.74 387.118 634.68 394.725 640.35 393.269C649.72 390.874 639.65 372.844 641.77 365.592H653.54L655.06 361.453Z" fill="#DD6A57"/>
<path d="M644.38 354.364C651.71 357.296 660.07 346.212 667.61 348.789C677.39 352.132 668.35 363.695 653.53 365.573H641.76L644.38 354.364Z" fill="#DD6A57"/>
<path d="M596.82 350.867C596.82 350.845 596.811 350.823 596.794 350.807C596.777 350.79 596.754 350.781 596.73 350.781C596.706 350.781 596.683 350.79 596.666 350.807C596.65 350.823 596.64 350.845 596.64 350.867C593.41 361.722 593.32 374.597 597.37 385.269C597.5 385.614 598.16 385.566 598.09 385.154C596.11 373.352 595.33 362.756 596.82 350.867Z" fill="#263238"/>
<path d="M610.74 349.67C610.74 349.536 610.53 349.507 610.49 349.67C607.22 360.879 607.49 375.373 613.72 387.157C613.93 387.559 614.55 387.712 614.34 387.233C610.85 379.109 609.34 360.39 610.74 349.67Z" fill="#263238"/>
<path d="M630.46 387.818C624.99 376.322 623.92 364.28 624.68 351.768C624.68 351.605 624.45 351.605 624.4 351.768C622.29 357.794 622.68 365.812 623.53 372.03C624.195 377.8 626.426 383.302 630 387.99C630.18 388.191 630.58 388.067 630.46 387.818Z" fill="#263238"/>
<path d="M668.19 347.907C663.39 346.375 658.46 350.053 654.42 352.113C653.127 352.85 651.764 353.469 650.35 353.962C647.15 354.92 644.78 354.307 643.35 353.454C641.11 352.084 634.12 345.397 629.07 347.62C627.328 348.401 625.836 349.615 624.75 351.136C623.21 348.453 621.24 345.531 617.83 344.995C617.079 344.873 616.309 344.905 615.571 345.088C614.834 345.271 614.145 345.602 613.55 346.058C612.915 346.528 612.349 347.079 611.87 347.697C611.395 348.251 611.005 348.867 610.71 349.526C610.709 349.504 610.709 349.482 610.71 349.459L610.6 349.258L610.39 348.846C610.105 348.294 609.699 347.807 609.2 347.419C609.105 347.326 608.991 347.253 608.866 347.203C608.74 347.154 608.606 347.129 608.47 347.131C608.449 347.131 608.429 347.139 608.414 347.154C608.399 347.168 608.39 347.188 608.39 347.208C608.39 347.228 608.399 347.248 608.414 347.262C608.429 347.277 608.449 347.285 608.47 347.285C608.704 347.391 608.894 347.57 609.01 347.792C609.17 348.022 609.32 348.262 609.49 348.482C609.66 348.702 609.82 348.932 609.99 349.153L610.24 349.507L610.35 349.689C610.398 349.748 610.452 349.803 610.51 349.852C610.524 349.87 610.542 349.884 610.563 349.894C610.584 349.904 610.607 349.91 610.63 349.91C610.653 349.91 610.676 349.904 610.697 349.894C610.718 349.884 610.736 349.87 610.75 349.852C611.265 349.414 611.73 348.926 612.14 348.396C612.644 347.835 613.203 347.321 613.81 346.863C614.387 346.436 615.051 346.13 615.759 345.965C616.467 345.8 617.203 345.779 617.92 345.905C620.98 346.48 622.92 349.086 624.55 351.414C624.55 351.414 624.55 351.414 624.6 351.414C624.55 351.49 624.66 351.557 624.72 351.5C626.4 350.092 628 348.511 630.32 348.185C632.82 347.831 635.19 348.98 637.26 350.187C638.297 350.772 639.299 351.411 640.26 352.103C641.11 352.736 641.92 353.445 642.83 354.019C646.72 356.366 650.98 354.546 652.04 354.115C654.131 353.213 656.158 352.183 658.11 351.03C660.072 349.77 662.285 348.912 664.61 348.511C665.678 348.36 666.767 348.471 667.778 348.833C668.789 349.195 669.687 349.796 670.39 350.58C671.12 351.481 672.05 353.167 670.14 357.008C670.14 357.008 670.14 357.085 670.2 357.056C671.2 356.06 674.38 349.89 668.19 347.907Z" fill="#263238"/>
<path d="M710.36 292.937L664.81 285.963C664.81 285.963 686.57 244.683 699.64 232.708C712.54 220.886 718.82 232.995 716.92 251.255C714.82 271.497 710.36 292.937 710.36 292.937Z" fill="#37474F"/>
<path d="M708.88 284.813C707.6 284.526 706.29 284.344 705.01 284.066C703.73 283.788 702.5 283.616 701.24 283.434C698.67 283.051 696.09 282.706 693.52 282.371C688.44 281.7 683.36 280.962 678.26 280.455C675.36 280.148 672.48 279.727 669.57 279.497C669.48 279.497 669.47 279.631 669.57 279.65C674.62 280.78 679.76 281.566 684.88 282.418C690 283.271 695.04 283.961 700.14 284.488C701.57 284.641 703.01 284.813 704.44 284.881C705.87 284.948 707.39 285.082 708.86 285.101C708.9 285.103 708.939 285.091 708.969 285.066C708.999 285.04 709.017 285.005 709.02 284.967C709.023 284.929 709.009 284.891 708.983 284.862C708.957 284.834 708.92 284.816 708.88 284.813Z" fill="#263238"/>
<path d="M685 365.956H805.63C805.63 365.956 755.49 246.743 730 229.326C722.35 224.095 710.16 223.511 701.94 234.011C695.2 242.633 676.49 276.881 675.64 289.201C674.79 301.521 684.88 313.697 684.88 313.697L685 365.956Z" fill="#455A64"/>
<path d="M724.94 285.177C725.25 285.101 725.55 285.063 725.85 285.005C726.115 284.948 726.389 284.948 726.654 285.006C726.918 285.064 727.166 285.178 727.378 285.34C727.59 285.502 727.761 285.707 727.88 285.941C727.998 286.175 728.059 286.431 728.06 286.691C728.053 286.922 728.108 287.151 728.22 287.356C728.332 287.561 728.497 287.734 728.7 287.86C728.927 287.997 729.184 288.082 729.45 288.109C729.756 288.152 730.06 288.209 730.36 288.281C730.06 288.358 729.76 288.396 729.45 288.454C729.115 288.518 728.768 288.488 728.45 288.368C728.112 288.229 727.824 287.998 727.623 287.703C727.422 287.408 727.316 287.063 727.32 286.71C727.314 286.48 727.248 286.255 727.128 286.056C727.007 285.856 726.836 285.689 726.63 285.57C726.392 285.446 726.13 285.371 725.86 285.35C725.55 285.292 725.25 285.254 724.94 285.177Z" fill="white"/>
<path d="M678.8 285.177C679.1 285.101 679.4 285.063 679.7 285.005C679.965 284.948 680.239 284.948 680.504 285.006C680.768 285.064 681.015 285.178 681.228 285.34C681.44 285.502 681.611 285.707 681.729 285.941C681.848 286.175 681.909 286.431 681.91 286.691C681.905 286.923 681.961 287.152 682.075 287.357C682.189 287.562 682.356 287.735 682.56 287.86C682.786 287.999 683.043 288.085 683.31 288.109C683.61 288.166 683.91 288.195 684.21 288.281C683.91 288.358 683.61 288.396 683.31 288.454C682.975 288.516 682.628 288.486 682.31 288.368C681.974 288.226 681.688 287.994 681.488 287.7C681.287 287.406 681.18 287.062 681.18 286.71C681.174 286.48 681.108 286.255 680.988 286.056C680.867 285.856 680.696 285.689 680.49 285.57C680.253 285.445 679.99 285.37 679.72 285.35C679.4 285.292 679.1 285.254 678.8 285.177Z" fill="white"/>
<path d="M741.7 342.6C742 342.523 742.31 342.485 742.61 342.428C742.875 342.373 743.148 342.377 743.411 342.437C743.675 342.496 743.92 342.612 744.131 342.774C744.342 342.937 744.512 343.142 744.63 343.375C744.747 343.609 744.809 343.864 744.81 344.123C744.807 344.355 744.866 344.583 744.979 344.787C745.093 344.991 745.258 345.165 745.46 345.292C745.688 345.426 745.944 345.508 746.21 345.532C746.51 345.589 746.82 345.627 747.12 345.704C746.82 345.79 746.51 345.828 746.21 345.886C745.874 345.946 745.527 345.913 745.21 345.79C744.872 345.651 744.583 345.42 744.38 345.126C744.178 344.831 744.07 344.486 744.07 344.133C744.069 343.903 744.004 343.678 743.883 343.479C743.762 343.281 743.588 343.116 743.38 343.002C743.149 342.873 742.888 342.797 742.62 342.782C742.31 342.725 742 342.686 741.7 342.6Z" fill="white"/>
<path d="M762.56 288.281C762.86 288.195 763.17 288.167 763.47 288.109C763.734 288.051 764.008 288.052 764.272 288.11C764.536 288.167 764.783 288.282 764.995 288.444C765.206 288.606 765.377 288.812 765.493 289.045C765.61 289.279 765.671 289.536 765.67 289.795C765.666 290.027 765.724 290.255 765.838 290.46C765.952 290.664 766.117 290.838 766.32 290.964C766.545 291.103 766.803 291.185 767.07 291.203C767.37 291.27 767.68 291.299 767.98 291.385C767.68 291.462 767.37 291.5 767.07 291.558C766.735 291.622 766.388 291.592 766.07 291.472C765.731 291.333 765.443 291.102 765.24 290.807C765.038 290.512 764.93 290.167 764.93 289.814C764.928 289.583 764.864 289.357 764.743 289.157C764.622 288.957 764.448 288.791 764.24 288.674C764.006 288.549 763.747 288.474 763.48 288.454C763.17 288.358 762.86 288.358 762.56 288.281Z" fill="white"/>
<path d="M709.23 259.072C709.54 258.995 709.84 258.957 710.14 258.9C710.473 258.83 710.82 258.853 711.14 258.967C711.487 259.091 711.787 259.313 711.999 259.604C712.212 259.895 712.327 260.24 712.33 260.595C712.329 260.826 712.388 261.054 712.501 261.258C712.615 261.462 712.779 261.636 712.98 261.764C713.21 261.893 713.465 261.975 713.73 262.003C714.04 262.061 714.34 262.099 714.64 262.176C714.34 262.262 714.04 262.291 713.73 262.358C713.394 262.414 713.048 262.38 712.73 262.262C712.387 262.122 712.096 261.886 711.894 261.586C711.693 261.285 711.59 260.933 711.6 260.576C711.595 260.347 711.53 260.123 711.409 259.925C711.288 259.727 711.116 259.562 710.91 259.446C710.675 259.314 710.412 259.235 710.14 259.216C709.84 259.187 709.54 259.158 709.23 259.072Z" fill="white"/>
<path d="M742.06 258.411C742.36 258.334 742.66 258.296 742.97 258.239C743.303 258.171 743.65 258.195 743.97 258.306C744.317 258.432 744.616 258.654 744.83 258.944C745.044 259.234 745.162 259.579 745.17 259.934C745.166 260.166 745.223 260.395 745.337 260.599C745.45 260.804 745.617 260.977 745.82 261.103C746.047 261.238 746.304 261.32 746.57 261.342C746.87 261.4 747.17 261.438 747.48 261.515C747.17 261.601 746.87 261.639 746.57 261.697C746.234 261.758 745.887 261.724 745.57 261.601C745.231 261.462 744.943 261.231 744.74 260.936C744.538 260.642 744.43 260.297 744.43 259.944C744.426 259.714 744.361 259.49 744.24 259.292C744.119 259.094 743.947 258.929 743.74 258.813C743.508 258.683 743.248 258.608 742.98 258.593C742.67 258.547 742.363 258.487 742.06 258.411Z" fill="white"/>
<path d="M720.81 228.224C721.11 228.148 721.42 228.109 721.72 228.052C721.984 227.994 722.258 227.994 722.522 228.052C722.786 228.11 723.033 228.225 723.245 228.387C723.456 228.549 723.627 228.754 723.743 228.988C723.86 229.222 723.921 229.479 723.92 229.738C723.915 229.97 723.971 230.199 724.085 230.404C724.199 230.609 724.366 230.782 724.57 230.907C724.796 231.045 725.053 231.13 725.32 231.156C725.62 231.213 725.93 231.242 726.23 231.328C725.93 231.405 725.62 231.443 725.32 231.501C724.985 231.565 724.638 231.535 724.32 231.414C723.981 231.276 723.693 231.044 723.49 230.75C723.288 230.455 723.18 230.11 723.18 229.757C723.178 229.526 723.114 229.3 722.993 229.1C722.872 228.9 722.698 228.733 722.49 228.617C722.256 228.492 721.997 228.416 721.73 228.397C721.42 228.339 721.11 228.301 720.81 228.224Z" fill="white"/>
<path d="M701.18 309.204C701.48 309.128 701.78 309.089 702.08 309.032C702.413 308.961 702.761 308.985 703.08 309.099C703.428 309.221 703.728 309.441 703.943 309.73C704.157 310.019 704.274 310.363 704.28 310.718C704.275 310.95 704.332 311.179 704.445 311.384C704.559 311.589 704.726 311.762 704.93 311.887C705.156 312.026 705.413 312.112 705.68 312.136C705.98 312.193 706.28 312.232 706.58 312.308C706.28 312.394 705.98 312.423 705.68 312.481C705.345 312.543 704.998 312.513 704.68 312.394C704.344 312.253 704.058 312.021 703.858 311.727C703.657 311.432 703.55 311.089 703.55 310.737C703.544 310.507 703.478 310.282 703.358 310.082C703.237 309.883 703.066 309.716 702.86 309.597C702.622 309.473 702.36 309.398 702.09 309.377C701.78 309.319 701.48 309.29 701.18 309.204Z" fill="white"/>
<path d="M737 361.827C737.3 361.741 737.61 361.703 737.91 361.645C738.174 361.591 738.448 361.594 738.711 361.654C738.974 361.714 739.22 361.829 739.431 361.992C739.642 362.154 739.812 362.36 739.929 362.593C740.047 362.826 740.109 363.082 740.11 363.341C740.107 363.572 740.165 363.801 740.279 364.005C740.393 364.209 740.558 364.383 740.76 364.51C740.986 364.647 741.243 364.729 741.51 364.749C741.81 364.807 742.12 364.845 742.42 364.921C742.12 365.008 741.81 365.046 741.51 365.103C741.174 365.164 740.827 365.13 740.51 365.008C740.171 364.87 739.881 364.639 739.679 364.344C739.476 364.049 739.368 363.703 739.37 363.35C739.368 363.121 739.304 362.895 739.183 362.697C739.062 362.498 738.888 362.334 738.68 362.22C738.448 362.09 738.188 362.015 737.92 362C737.58 361.942 737.27 361.904 737 361.827Z" fill="white"/>
<path d="M719.35 333.547C719.65 333.47 719.95 333.432 720.25 333.374C720.584 333.309 720.929 333.332 721.25 333.442C721.598 333.565 721.899 333.787 722.113 334.078C722.328 334.368 722.445 334.714 722.45 335.07C722.446 335.302 722.503 335.531 722.617 335.735C722.73 335.94 722.897 336.113 723.1 336.239C723.326 336.375 723.584 336.458 723.85 336.478C724.15 336.536 724.45 336.574 724.76 336.651C724.45 336.737 724.15 336.766 723.85 336.833C723.514 336.887 723.169 336.854 722.85 336.737C722.514 336.596 722.228 336.364 722.028 336.069C721.827 335.775 721.72 335.431 721.72 335.08C721.714 334.851 721.647 334.627 721.526 334.43C721.406 334.232 721.235 334.067 721.03 333.949C720.797 333.814 720.532 333.738 720.26 333.729C720 333.662 719.65 333.633 719.35 333.547Z" fill="white"/>
<path d="M686.74 338.691C687.05 338.605 687.35 338.567 687.65 338.509C687.914 338.455 688.188 338.458 688.451 338.518C688.714 338.578 688.96 338.694 689.171 338.856C689.382 339.018 689.552 339.224 689.669 339.457C689.787 339.69 689.849 339.946 689.85 340.205C689.847 340.436 689.905 340.665 690.019 340.869C690.133 341.073 690.298 341.247 690.5 341.374C690.726 341.511 690.983 341.594 691.25 341.613C691.56 341.671 691.86 341.709 692.16 341.786C691.86 341.861 691.556 341.922 691.25 341.968C690.914 342.028 690.567 341.995 690.25 341.872C689.911 341.734 689.621 341.503 689.419 341.208C689.216 340.913 689.108 340.568 689.11 340.215C689.108 339.986 689.045 339.762 688.926 339.563C688.807 339.365 688.636 339.2 688.43 339.084C688.194 338.956 687.931 338.88 687.66 338.864C687.35 338.806 687.05 338.768 686.74 338.691Z" fill="white"/>
<path d="M734.36 309.894C734.66 309.817 734.96 309.779 735.26 309.721C735.525 309.667 735.799 309.671 736.063 309.73C736.326 309.79 736.573 309.906 736.784 310.068C736.996 310.23 737.167 310.435 737.285 310.669C737.404 310.902 737.467 311.158 737.47 311.417C737.466 311.649 737.523 311.878 737.637 312.082C737.75 312.287 737.917 312.46 738.12 312.586C738.346 312.722 738.604 312.804 738.87 312.825C739.17 312.883 739.47 312.921 739.77 312.998C739.47 313.084 739.17 313.113 738.87 313.18C738.534 313.238 738.187 313.205 737.87 313.084C737.534 312.943 737.248 312.711 737.048 312.416C736.847 312.122 736.74 311.778 736.74 311.427C736.734 311.198 736.667 310.974 736.546 310.777C736.426 310.579 736.255 310.414 736.05 310.296C735.816 310.163 735.552 310.088 735.28 310.076C735 310.009 734.66 309.98 734.36 309.894Z" fill="white"/>
<path d="M776.05 348.607C776.35 348.53 776.66 348.492 776.96 348.434C777.293 348.364 777.64 348.388 777.96 348.501C778.307 348.625 778.607 348.848 778.819 349.138C779.032 349.429 779.147 349.775 779.15 350.13C779.149 350.361 779.208 350.589 779.322 350.793C779.435 350.997 779.599 351.17 779.8 351.299C780.03 351.428 780.285 351.51 780.55 351.538C780.86 351.596 781.16 351.634 781.46 351.711C781.16 351.797 780.86 351.826 780.55 351.893C780.284 351.94 780.011 351.929 779.749 351.862C779.488 351.796 779.246 351.674 779.04 351.506C778.834 351.338 778.67 351.128 778.559 350.892C778.448 350.655 778.394 350.398 778.4 350.139C778.398 349.91 778.334 349.684 778.213 349.486C778.092 349.288 777.918 349.123 777.71 349.009C777.479 348.876 777.219 348.797 776.95 348.779C776.66 348.712 776.35 348.712 776.05 348.607Z" fill="white"/>
<path d="M759.5 324.973C759.8 324.896 760.11 324.858 760.41 324.8C760.674 324.746 760.948 324.749 761.211 324.809C761.474 324.869 761.72 324.985 761.931 325.147C762.142 325.309 762.312 325.515 762.429 325.748C762.547 325.981 762.609 326.237 762.61 326.496C762.605 326.728 762.663 326.957 762.777 327.161C762.89 327.366 763.057 327.539 763.26 327.665C763.485 327.804 763.743 327.886 764.01 327.904C764.31 327.962 764.62 328 764.92 328.077C764.62 328.163 764.31 328.201 764.01 328.259C763.674 328.32 763.327 328.286 763.01 328.163C762.671 328.025 762.381 327.794 762.179 327.499C761.976 327.204 761.868 326.859 761.87 326.506C761.868 326.276 761.804 326.05 761.683 325.852C761.562 325.654 761.388 325.489 761.18 325.375C760.948 325.245 760.688 325.17 760.42 325.155C760.11 325.097 759.8 325.059 759.5 324.973Z" fill="white"/>
<path d="M794.68 359.413C794.99 359.336 795.29 359.298 795.59 359.241C795.855 359.186 796.128 359.19 796.391 359.249C796.655 359.309 796.9 359.425 797.111 359.587C797.322 359.75 797.492 359.955 797.61 360.188C797.727 360.422 797.789 360.677 797.79 360.936C797.788 361.168 797.846 361.396 797.959 361.6C798.073 361.804 798.238 361.978 798.44 362.105C798.666 362.243 798.923 362.325 799.19 362.345C799.5 362.402 799.8 362.44 800.1 362.517C799.8 362.592 799.497 362.653 799.19 362.699C798.854 362.759 798.507 362.726 798.19 362.603C797.851 362.466 797.562 362.235 797.361 361.94C797.16 361.644 797.055 361.298 797.06 360.946C797.054 360.717 796.987 360.493 796.867 360.296C796.746 360.098 796.575 359.933 796.37 359.815C796.134 359.687 795.871 359.612 795.6 359.595C795.29 359.538 795 359.499 794.68 359.413Z" fill="white"/>
<path d="M712 275.387C711.85 275.645 711.66 275.875 711.49 276.124C711.345 276.344 711.15 276.53 710.919 276.667C710.689 276.805 710.429 276.891 710.16 276.92C709.89 276.948 709.617 276.918 709.361 276.832C709.104 276.746 708.872 276.606 708.68 276.421C708.513 276.254 708.304 276.13 708.073 276.063C707.841 275.996 707.596 275.988 707.36 276.038C707.099 276.094 706.856 276.209 706.65 276.374C706.403 276.55 706.146 276.713 705.88 276.862C706.04 276.603 706.22 276.374 706.39 276.124C706.586 275.849 706.86 275.633 707.18 275.502C707.518 275.374 707.888 275.345 708.243 275.416C708.598 275.488 708.924 275.657 709.18 275.904C709.353 276.064 709.567 276.179 709.8 276.238C710.032 276.296 710.277 276.297 710.51 276.239C710.77 276.172 711.009 276.047 711.21 275.875C711.53 275.713 711.77 275.53 712 275.387Z" fill="white"/>
<path d="M699.93 255.987C699.78 256.246 699.59 256.476 699.42 256.725C699.275 256.944 699.08 257.13 698.849 257.268C698.619 257.405 698.359 257.492 698.09 257.52C697.82 257.549 697.547 257.519 697.291 257.433C697.034 257.346 696.802 257.206 696.61 257.022C696.444 256.853 696.235 256.729 696.003 256.662C695.772 256.595 695.526 256.587 695.29 256.639C695.029 256.695 694.785 256.81 694.58 256.974C694.333 257.15 694.076 257.313 693.81 257.462C693.97 257.204 694.15 256.974 694.32 256.725C694.516 256.45 694.79 256.233 695.11 256.102C695.448 255.975 695.818 255.945 696.173 256.017C696.528 256.088 696.854 256.258 697.11 256.504C697.283 256.665 697.496 256.781 697.729 256.839C697.962 256.898 698.207 256.898 698.44 256.84C698.7 256.772 698.939 256.647 699.14 256.476C699.42 256.313 699.66 256.131 699.93 255.987Z" fill="white"/>
<path d="M761 309.156C760.84 309.424 760.66 309.654 760.49 309.894C760.3 310.172 760.034 310.394 759.72 310.536C759.389 310.674 759.022 310.715 758.666 310.654C758.31 310.592 757.981 310.431 757.72 310.191C757.552 310.025 757.342 309.904 757.112 309.837C756.881 309.77 756.636 309.76 756.4 309.808C756.139 309.864 755.896 309.979 755.69 310.143C755.43 310.306 755.19 310.488 754.92 310.631C755.07 310.373 755.26 310.143 755.43 309.894C755.622 309.619 755.893 309.403 756.21 309.271C756.549 309.147 756.917 309.12 757.272 309.191C757.626 309.262 757.952 309.43 758.21 309.673C758.381 309.834 758.592 309.95 758.824 310.009C759.055 310.067 759.299 310.067 759.53 310.009C759.792 309.943 760.034 309.822 760.24 309.654C760.52 309.491 760.76 309.309 761 309.156Z" fill="white"/>
<path d="M730.46 246.283C730.31 246.541 730.12 246.771 729.95 247.02C729.763 247.295 729.5 247.514 729.19 247.653C728.852 247.799 728.477 247.845 728.112 247.785C727.746 247.725 727.408 247.563 727.14 247.317C726.973 247.15 726.764 247.027 726.533 246.958C726.302 246.889 726.057 246.878 725.82 246.925C725.56 246.983 725.317 247.097 725.11 247.26C724.85 247.423 724.61 247.605 724.34 247.758C724.49 247.49 724.68 247.26 724.85 247.011C725.044 246.736 725.319 246.522 725.64 246.398C725.978 246.27 726.348 246.241 726.703 246.312C727.058 246.384 727.384 246.553 727.64 246.8C727.815 246.968 728.032 247.089 728.27 247.153C728.509 247.217 728.76 247.22 729 247.164C729.258 247.092 729.497 246.968 729.7 246.8C730 246.608 730.19 246.426 730.46 246.283Z" fill="white"/>
<path d="M709.28 231.951C709.13 232.21 708.94 232.44 708.77 232.689C708.581 232.964 708.319 233.186 708.01 233.331C707.672 233.475 707.295 233.52 706.93 233.458C706.565 233.397 706.227 233.232 705.96 232.986C705.793 232.818 705.584 232.695 705.353 232.628C705.122 232.56 704.876 232.552 704.64 232.602C704.378 232.657 704.134 232.772 703.93 232.938C703.67 233.101 703.43 233.283 703.16 233.426C703.31 233.168 703.5 232.938 703.67 232.689C703.864 232.411 704.139 232.195 704.46 232.066C704.798 231.939 705.168 231.909 705.523 231.98C705.878 232.052 706.204 232.222 706.46 232.468C706.632 232.63 706.846 232.746 707.079 232.805C707.312 232.863 707.557 232.863 707.79 232.804C708.05 232.736 708.289 232.611 708.49 232.44C708.77 232.277 709 232.095 709.28 231.951Z" fill="white"/>
<path d="M729.27 264.523C729.36 264.81 729.39 265.107 729.46 265.395C729.522 265.715 729.498 266.044 729.39 266.353C729.258 266.684 729.026 266.969 728.723 267.173C728.42 267.376 728.06 267.487 727.69 267.493C727.448 267.489 727.21 267.545 726.996 267.653C726.783 267.762 726.602 267.921 726.47 268.115C726.325 268.331 726.239 268.578 726.22 268.834C726.15 269.121 726.12 269.418 726.03 269.706C725.95 269.418 725.91 269.121 725.85 268.834C725.782 268.512 725.817 268.178 725.95 267.876C726.093 267.55 726.334 267.272 726.642 267.078C726.95 266.883 727.311 266.781 727.68 266.784C727.92 266.781 728.155 266.719 728.362 266.603C728.569 266.487 728.74 266.322 728.86 266.123C728.991 265.899 729.07 265.651 729.09 265.395C729.15 265.107 729.19 264.81 729.27 264.523Z" fill="white"/>
<path d="M722.06 315.556C722.14 315.843 722.18 316.14 722.24 316.427C722.296 316.681 722.293 316.943 722.231 317.195C722.168 317.447 722.048 317.683 721.878 317.884C721.709 318.086 721.494 318.249 721.251 318.362C721.007 318.474 720.74 318.534 720.47 318.535C720.228 318.531 719.989 318.586 719.776 318.695C719.562 318.804 719.381 318.963 719.25 319.158C719.109 319.375 719.024 319.621 719 319.876C718.94 320.164 718.9 320.461 718.82 320.748C718.73 320.461 718.69 320.164 718.63 319.876C718.567 319.554 718.601 319.222 718.73 318.918C718.875 318.594 719.116 318.317 719.424 318.123C719.731 317.929 720.092 317.826 720.46 317.826C720.7 317.825 720.935 317.763 721.142 317.647C721.349 317.531 721.521 317.365 721.64 317.165C721.776 316.943 721.854 316.694 721.87 316.437C721.93 316.14 722 315.843 722.06 315.556Z" fill="white"/>
<path d="M792 339.199C792.09 339.487 792.13 339.774 792.19 340.061C792.246 340.315 792.243 340.578 792.18 340.83C792.118 341.083 791.998 341.319 791.828 341.521C791.659 341.724 791.445 341.888 791.201 342.002C790.958 342.115 790.691 342.176 790.42 342.179C790.178 342.174 789.939 342.229 789.726 342.338C789.512 342.447 789.331 342.607 789.2 342.801C789.053 343.016 788.967 343.264 788.95 343.52C788.89 343.807 788.85 344.095 788.77 344.382C788.68 344.095 788.64 343.807 788.58 343.52C788.519 343.198 788.553 342.866 788.68 342.562C788.826 342.239 789.068 341.965 789.376 341.772C789.683 341.58 790.043 341.478 790.41 341.479C790.649 341.473 790.882 341.409 791.088 341.294C791.295 341.178 791.467 341.015 791.59 340.818C791.724 340.592 791.803 340.34 791.82 340.081C791.89 339.774 791.93 339.487 792 339.199Z" fill="white"/>
<path d="M759.6 271.593C759.68 271.88 759.72 272.168 759.78 272.465C759.85 272.784 759.826 273.116 759.71 273.423C759.579 273.755 759.347 274.042 759.044 274.247C758.741 274.451 758.381 274.565 758.01 274.572C757.768 274.568 757.529 274.623 757.316 274.732C757.102 274.841 756.921 275 756.79 275.195C756.649 275.413 756.564 275.659 756.54 275.914C756.48 276.201 756.44 276.488 756.36 276.785C756.27 276.488 756.24 276.201 756.17 275.914C756.121 275.659 756.132 275.397 756.202 275.147C756.272 274.896 756.399 274.664 756.574 274.467C756.749 274.27 756.968 274.112 757.215 274.006C757.462 273.9 757.73 273.848 758 273.854C758.24 273.85 758.474 273.788 758.681 273.672C758.888 273.556 759.06 273.391 759.18 273.193C759.32 272.973 759.399 272.722 759.41 272.465C759.48 272.168 759.51 271.88 759.6 271.593Z" fill="white"/>
<path d="M759.6 353.502C759.68 353.789 759.72 354.077 759.78 354.364C759.836 354.618 759.833 354.881 759.77 355.133C759.708 355.386 759.588 355.622 759.418 355.824C759.249 356.027 759.035 356.191 758.791 356.304C758.548 356.418 758.281 356.478 758.01 356.481C757.768 356.477 757.529 356.532 757.316 356.641C757.102 356.75 756.921 356.909 756.79 357.104C756.647 357.321 756.562 357.567 756.54 357.823C756.48 358.11 756.44 358.397 756.36 358.685C756.27 358.397 756.24 358.11 756.17 357.823C756.113 357.5 756.148 357.17 756.27 356.865C756.418 356.543 756.66 356.269 756.967 356.077C757.274 355.884 757.633 355.782 758 355.782C758.239 355.776 758.472 355.712 758.678 355.596C758.885 355.481 759.057 355.317 759.18 355.121C759.321 354.898 759.401 354.644 759.41 354.383C759.48 354.106 759.51 353.818 759.6 353.502Z" fill="white"/>
<path d="M776.05 306.608C776.14 306.895 776.17 307.192 776.23 307.48C776.29 307.733 776.29 307.995 776.229 308.248C776.169 308.501 776.05 308.738 775.881 308.94C775.711 309.143 775.497 309.306 775.252 309.418C775.008 309.53 774.741 309.588 774.47 309.587C774.228 309.584 773.99 309.639 773.776 309.748C773.563 309.857 773.382 310.016 773.25 310.21C773.105 310.426 773.019 310.673 773 310.928C772.93 311.216 772.9 311.513 772.81 311.8C772.73 311.513 772.69 311.216 772.63 310.928C772.562 310.607 772.597 310.273 772.73 309.97C772.872 309.646 773.111 309.369 773.417 309.175C773.723 308.981 774.083 308.877 774.45 308.878C774.691 308.877 774.928 308.815 775.136 308.699C775.345 308.583 775.519 308.417 775.64 308.217C775.771 307.994 775.85 307.745 775.87 307.489C775.93 307.192 776 306.895 776.05 306.608Z" fill="white"/>
<path d="M692.69 317.385C692.78 317.673 692.81 317.96 692.87 318.248C692.93 318.501 692.93 318.764 692.869 319.018C692.809 319.271 692.69 319.508 692.521 319.711C692.352 319.914 692.137 320.079 691.893 320.192C691.649 320.305 691.381 320.364 691.11 320.365C690.868 320.36 690.629 320.414 690.415 320.523C690.201 320.632 690.02 320.792 689.89 320.988C689.743 321.202 689.657 321.45 689.64 321.706C689.57 321.993 689.54 322.281 689.45 322.568C689.37 322.281 689.33 321.993 689.27 321.706C689.204 321.384 689.239 321.051 689.37 320.748C689.514 320.426 689.753 320.151 690.059 319.958C690.365 319.766 690.724 319.664 691.09 319.666C691.33 319.66 691.565 319.597 691.773 319.481C691.981 319.366 692.156 319.202 692.28 319.005C692.412 318.778 692.491 318.526 692.51 318.267C692.57 317.96 692.61 317.673 692.69 317.385Z" fill="white"/>
<path d="M694.31 271.593C694.385 271.881 694.445 272.171 694.49 272.465C694.564 272.783 694.543 273.115 694.43 273.423C694.298 273.755 694.066 274.042 693.763 274.247C693.461 274.451 693.101 274.565 692.73 274.572C692.488 274.567 692.249 274.622 692.035 274.731C691.821 274.84 691.64 275 691.51 275.195C691.365 275.411 691.279 275.658 691.26 275.914C691.19 276.201 691.16 276.488 691.07 276.785C690.99 276.488 690.95 276.201 690.89 275.914C690.823 275.593 690.854 275.26 690.98 274.956C691.125 274.631 691.366 274.355 691.674 274.161C691.981 273.966 692.342 273.863 692.71 273.863C692.951 273.86 693.186 273.797 693.395 273.681C693.603 273.566 693.777 273.401 693.9 273.202C694.031 272.979 694.11 272.73 694.13 272.474C694.19 272.168 694.23 271.88 694.31 271.593Z" fill="white"/>
<path d="M711.75 241.828C711.83 242.115 711.87 242.403 711.93 242.7C712 243.019 711.976 243.351 711.86 243.658C711.729 243.99 711.497 244.277 711.194 244.482C710.891 244.686 710.531 244.8 710.16 244.807C709.918 244.803 709.679 244.858 709.466 244.967C709.252 245.076 709.071 245.235 708.94 245.43C708.799 245.647 708.714 245.894 708.69 246.148C708.63 246.436 708.59 246.723 708.51 247.02C708.42 246.723 708.39 246.436 708.32 246.148C708.259 245.826 708.294 245.494 708.42 245.19C708.568 244.869 708.81 244.595 709.117 244.403C709.424 244.21 709.783 244.108 710.15 244.108C710.39 244.104 710.624 244.042 710.831 243.926C711.038 243.81 711.21 243.645 711.33 243.447C711.47 243.227 711.549 242.976 711.56 242.719C711.63 242.374 711.66 242.115 711.75 241.828Z" fill="white"/>
<path d="M707.07 287.841C707.15 288.138 707.19 288.425 707.25 288.713C707.306 288.966 707.303 289.229 707.24 289.482C707.178 289.734 707.058 289.97 706.888 290.173C706.719 290.375 706.505 290.539 706.261 290.653C706.018 290.767 705.751 290.827 705.48 290.83C705.238 290.825 704.999 290.88 704.786 290.989C704.572 291.098 704.391 291.258 704.26 291.452C704.118 291.669 704.032 291.916 704.01 292.171C703.95 292.458 703.91 292.746 703.83 293.033C703.74 292.746 703.7 292.458 703.64 292.171C703.579 291.849 703.613 291.517 703.74 291.213C703.888 290.891 704.13 290.617 704.437 290.425C704.744 290.233 705.103 290.131 705.47 290.13C705.709 290.124 705.942 290.06 706.149 289.945C706.355 289.829 706.527 289.666 706.65 289.469C706.784 289.243 706.863 288.991 706.88 288.732C706.94 288.425 707 288.138 707.07 287.841Z" fill="white"/>
<path d="M749.1 294.03C749.18 294.317 749.22 294.614 749.28 294.901C749.337 295.155 749.333 295.417 749.271 295.669C749.208 295.921 749.088 296.156 748.918 296.358C748.749 296.56 748.534 296.723 748.291 296.836C748.047 296.948 747.781 297.008 747.51 297.009C747.269 297.006 747.03 297.062 746.817 297.171C746.604 297.28 746.423 297.438 746.29 297.632C746.151 297.85 746.065 298.095 746.04 298.35C745.98 298.638 745.94 298.934 745.86 299.222C745.77 298.934 745.74 298.638 745.67 298.35C745.607 298.028 745.642 297.696 745.77 297.392C745.915 297.068 746.156 296.791 746.464 296.597C746.772 296.403 747.132 296.3 747.5 296.3C747.74 296.298 747.975 296.237 748.182 296.121C748.389 296.005 748.561 295.838 748.68 295.639C748.82 295.419 748.899 295.168 748.91 294.911C749 294.614 749 294.317 749.1 294.03Z" fill="white"/>
<path d="M710.25 345.704C710.33 346.001 710.37 346.288 710.43 346.576C710.49 346.829 710.49 347.092 710.429 347.345C710.369 347.599 710.25 347.836 710.081 348.039C709.912 348.242 709.697 348.407 709.453 348.52C709.209 348.633 708.941 348.692 708.67 348.693C708.428 348.686 708.188 348.739 707.974 348.849C707.76 348.958 707.579 349.119 707.45 349.316C707.306 349.529 707.217 349.772 707.19 350.024C707.145 350.318 707.085 350.609 707.01 350.896C706.93 350.609 706.89 350.321 706.83 350.024C706.763 349.703 706.795 349.371 706.92 349.066C707.064 348.742 707.306 348.467 707.614 348.274C707.922 348.081 708.282 347.98 708.65 347.984C708.89 347.978 709.125 347.915 709.333 347.799C709.541 347.684 709.716 347.52 709.84 347.323C709.97 347.095 710.048 346.844 710.07 346.585C710.13 346.288 710.17 346.001 710.25 345.704Z" fill="white"/>
<path d="M741.89 279.42C742.05 279.161 742.24 278.931 742.41 278.682C742.594 278.406 742.858 278.186 743.17 278.05C743.501 277.912 743.867 277.87 744.223 277.929C744.578 277.989 744.908 278.148 745.17 278.385C745.34 278.552 745.55 278.676 745.783 278.745C746.015 278.813 746.262 278.825 746.5 278.778C746.757 278.72 746.997 278.605 747.2 278.443C747.46 278.27 747.7 278.098 747.98 277.945C747.82 278.213 747.63 278.443 747.46 278.692C747.267 278.964 746.996 279.177 746.68 279.305C746.342 279.43 745.973 279.458 745.618 279.387C745.263 279.316 744.937 279.147 744.68 278.903C744.507 278.745 744.296 278.632 744.065 278.573C743.834 278.514 743.592 278.512 743.36 278.567C743.102 278.639 742.863 278.763 742.66 278.931C742.41 279.094 742.17 279.276 741.89 279.42Z" fill="white"/>
<path d="M717.38 300.697C717.53 300.439 717.72 300.209 717.89 299.96C718.035 299.74 718.23 299.554 718.461 299.417C718.691 299.279 718.951 299.193 719.221 299.164C719.49 299.135 719.764 299.166 720.02 299.252C720.276 299.338 720.508 299.478 720.7 299.663C720.866 299.831 721.076 299.955 721.307 300.022C721.539 300.089 721.784 300.097 722.02 300.046C722.281 299.99 722.525 299.875 722.73 299.71C722.977 299.534 723.234 299.371 723.5 299.222C723.34 299.481 723.16 299.71 722.99 299.96C722.837 300.174 722.636 300.353 722.402 300.484C722.167 300.614 721.905 300.693 721.635 300.714C721.365 300.735 721.093 300.698 720.839 300.606C720.586 300.513 720.357 300.368 720.17 300.18C719.999 300.02 719.787 299.905 719.556 299.846C719.325 299.787 719.082 299.787 718.85 299.845C718.592 299.916 718.353 300.041 718.15 300.209C717.89 300.371 717.65 300.554 717.38 300.697Z" fill="white"/>
<path d="M700.76 332.043C700.92 331.775 701.11 331.545 701.28 331.305C701.425 331.086 701.62 330.9 701.851 330.762C702.081 330.625 702.341 330.538 702.611 330.51C702.88 330.481 703.153 330.511 703.41 330.598C703.666 330.684 703.898 330.824 704.09 331.008C704.258 331.174 704.467 331.297 704.698 331.364C704.929 331.431 705.174 331.44 705.41 331.391C705.671 331.335 705.915 331.221 706.12 331.056C706.367 330.88 706.624 330.717 706.89 330.568C706.73 330.826 706.55 331.056 706.38 331.305C706.228 331.52 706.028 331.699 705.794 331.829C705.561 331.96 705.3 332.038 705.03 332.06C704.76 332.081 704.489 332.044 704.237 331.951C703.984 331.859 703.756 331.713 703.57 331.526C703.397 331.365 703.184 331.249 702.951 331.191C702.718 331.132 702.473 331.132 702.24 331.19C701.981 331.254 701.741 331.376 701.54 331.545C701.28 331.717 701 331.89 700.76 332.043Z" fill="white"/>
<path d="M707.94 364.605C708.1 364.347 708.29 364.117 708.46 363.868C708.644 363.591 708.908 363.371 709.22 363.235C709.552 363.1 709.917 363.059 710.272 363.118C710.627 363.178 710.957 363.335 711.22 363.571C711.387 363.738 711.596 363.863 711.827 363.931C712.058 364 712.303 364.011 712.54 363.963C712.802 363.904 713.045 363.785 713.25 363.619C713.5 363.456 713.74 363.283 714.02 363.13C713.86 363.398 713.68 363.628 713.51 363.868C713.314 364.143 713.04 364.359 712.72 364.49C712.382 364.615 712.013 364.644 711.658 364.572C711.303 364.501 710.978 364.333 710.72 364.088C710.547 363.93 710.336 363.817 710.105 363.758C709.874 363.7 709.632 363.698 709.4 363.753C709.142 363.824 708.904 363.949 708.7 364.117C708.46 364.28 708.22 364.462 707.94 364.605Z" fill="white"/>
<path d="M740.09 328.814C740.24 328.556 740.43 328.326 740.6 328.077C740.787 327.802 741.05 327.583 741.36 327.445C741.698 327.298 742.073 327.252 742.439 327.312C742.804 327.372 743.142 327.535 743.41 327.78C743.577 327.948 743.786 328.072 744.017 328.14C744.248 328.209 744.493 328.22 744.73 328.173C744.99 328.112 745.232 327.998 745.44 327.837C745.69 327.674 745.93 327.492 746.21 327.339C746.05 327.607 745.87 327.837 745.7 328.086C745.506 328.362 745.231 328.575 744.91 328.699C744.572 328.827 744.203 328.857 743.847 328.785C743.492 328.714 743.166 328.544 742.91 328.297C742.735 328.139 742.522 328.026 742.29 327.968C742.057 327.909 741.813 327.907 741.58 327.962C741.322 328.034 741.083 328.158 740.88 328.326C740.6 328.489 740.36 328.671 740.09 328.814Z" fill="white"/>
<path d="M762.21 341.786C762.36 341.527 762.55 341.297 762.72 341.048C762.909 340.776 763.172 340.557 763.48 340.416C763.811 340.28 764.177 340.239 764.532 340.299C764.887 340.358 765.216 340.516 765.48 340.751C765.647 340.918 765.856 341.042 766.087 341.11C766.318 341.179 766.563 341.191 766.8 341.144C767.06 341.086 767.303 340.971 767.51 340.809C767.77 340.646 768.01 340.464 768.28 340.31C768.13 340.579 767.94 340.809 767.77 341.058C767.579 341.335 767.303 341.549 766.98 341.671C766.642 341.798 766.273 341.828 765.917 341.756C765.562 341.685 765.236 341.515 764.98 341.268C764.805 341.111 764.592 340.997 764.359 340.939C764.127 340.88 763.883 340.878 763.65 340.933C763.392 341.005 763.153 341.129 762.95 341.297C762.72 341.46 762.48 341.642 762.21 341.786Z" fill="white"/>
<path d="M725 351.634C725.15 351.375 725.34 351.145 725.51 350.896C725.694 350.62 725.958 350.4 726.27 350.264C726.608 350.118 726.983 350.072 727.348 350.132C727.714 350.191 728.052 350.354 728.32 350.599C728.487 350.767 728.696 350.891 728.927 350.96C729.158 351.029 729.403 351.04 729.64 350.992C729.902 350.932 730.145 350.814 730.35 350.647C730.6 350.484 730.84 350.312 731.12 350.159C730.96 350.427 730.78 350.657 730.61 350.896C730.417 351.174 730.142 351.391 729.82 351.519C729.482 351.646 729.113 351.676 728.757 351.605C728.402 351.533 728.076 351.364 727.82 351.117C727.645 350.959 727.432 350.846 727.199 350.787C726.967 350.729 726.723 350.727 726.49 350.781C726.232 350.853 725.993 350.977 725.79 351.145C725.51 351.308 725.27 351.49 725 351.634Z" fill="white"/>
<path d="M773 364.605C773.16 364.347 773.34 364.117 773.51 363.868C773.697 363.593 773.96 363.374 774.27 363.235C774.608 363.089 774.983 363.043 775.348 363.103C775.714 363.163 776.052 363.325 776.32 363.571C776.487 363.738 776.696 363.861 776.927 363.93C777.158 363.999 777.403 364.01 777.64 363.963C777.9 363.905 778.143 363.791 778.35 363.628C778.61 363.456 778.85 363.283 779.12 363.13C778.97 363.398 778.78 363.628 778.61 363.877C778.417 364.149 778.146 364.362 777.83 364.49C777.492 364.616 777.123 364.645 776.768 364.574C776.412 364.503 776.087 364.334 775.83 364.088C775.657 363.931 775.445 363.818 775.214 363.76C774.984 363.701 774.742 363.699 774.51 363.753C774.248 363.822 774.006 363.946 773.8 364.117C773.5 364.279 773.26 364.462 773 364.605Z" fill="white"/>
<path d="M778.41 329.552C778.56 329.284 778.75 329.054 778.92 328.805C779.11 328.532 779.372 328.314 779.68 328.173C780.018 328.026 780.393 327.98 780.759 328.04C781.124 328.1 781.462 328.263 781.73 328.508C781.898 328.675 782.106 328.798 782.337 328.867C782.568 328.936 782.813 328.947 783.05 328.901C783.311 328.843 783.554 328.728 783.76 328.565C784.02 328.402 784.26 328.22 784.53 328.067C784.38 328.335 784.19 328.565 784.02 328.814C783.829 329.092 783.553 329.306 783.23 329.428C782.892 329.555 782.523 329.585 782.167 329.513C781.812 329.442 781.486 329.272 781.23 329.025C781.057 328.868 780.845 328.755 780.615 328.697C780.384 328.638 780.142 328.636 779.91 328.69C779.648 328.759 779.406 328.884 779.2 329.054C778.92 329.226 778.68 329.408 778.41 329.552Z" fill="white"/>
<path d="M690.75 356.127C690.91 355.859 691.09 355.629 691.26 355.38C691.449 355.107 691.712 354.889 692.02 354.747C692.358 354.601 692.733 354.555 693.098 354.615C693.464 354.675 693.802 354.838 694.07 355.083C694.237 355.25 694.446 355.373 694.677 355.442C694.908 355.511 695.153 355.522 695.39 355.476C695.65 355.418 695.893 355.303 696.1 355.14C696.36 354.977 696.6 354.795 696.87 354.642C696.72 354.91 696.53 355.14 696.36 355.389C696.17 355.664 695.898 355.877 695.58 356.002C695.242 356.129 694.873 356.158 694.518 356.086C694.162 356.015 693.837 355.846 693.58 355.6C693.407 355.443 693.195 355.33 692.964 355.273C692.733 355.216 692.491 355.216 692.26 355.274C691.997 355.336 691.753 355.458 691.55 355.629C691.26 355.792 691 355.974 690.75 356.127Z" fill="white"/>
<path d="M688 301.435C688.15 301.176 688.34 300.946 688.51 300.697C688.699 300.422 688.961 300.2 689.27 300.055C689.609 299.91 689.985 299.866 690.35 299.927C690.715 299.989 691.053 300.153 691.32 300.4C691.487 300.568 691.696 300.691 691.927 300.758C692.159 300.825 692.404 300.834 692.64 300.783C692.903 300.734 693.148 300.618 693.35 300.448C693.61 300.285 693.85 300.103 694.12 299.959C693.964 300.214 693.794 300.46 693.61 300.697C693.418 300.972 693.147 301.188 692.83 301.32C692.492 301.446 692.123 301.475 691.768 301.403C691.412 301.332 691.087 301.163 690.83 300.917C690.658 300.758 690.447 300.644 690.216 300.585C689.985 300.526 689.742 300.525 689.51 300.582C689.248 300.651 689.006 300.776 688.8 300.946C688.52 301.109 688.28 301.291 688 301.435Z" fill="white"/>
<path d="M720.63 228.464C720.26 230.255 711.82 242.048 703.34 241.943C700.58 241.895 700.14 227.449 700.14 227.449L699.85 226.395L695.85 211.565L713.78 199.714L716.38 198.143C716.38 198.143 717.19 202.272 718.16 207.417C718.16 207.656 718.25 207.896 718.29 208.154C718.33 208.413 718.42 208.71 718.46 208.988C718.62 209.754 718.77 210.54 718.91 211.325C719.02 211.919 719.12 212.494 719.21 213.126C719.3 213.759 719.4 214.372 719.51 215.042C720.202 219.487 720.576 223.971 720.63 228.464Z" fill="#DD6A57"/>
<path d="M718.16 207.417C716.728 211.663 714.348 215.56 711.186 218.837C708.025 222.114 704.156 224.693 699.85 226.395L695.85 211.565L713.78 199.714L716.38 198.143C716.38 198.143 717.19 202.272 718.16 207.417Z" fill="#263238"/>
<path d="M673.87 189.54C673.13 216.422 689.87 219.88 695.87 220.024C701.36 220.158 720.08 219.947 723.72 193.286C727.36 166.625 714.54 157.84 702 156.882C689.46 155.924 674.61 162.659 673.87 189.54Z" fill="#DD6A57"/>
<path d="M678.13 181.407C678.79 181.302 679.37 181.11 680.01 180.947C680.693 180.867 681.332 180.578 681.83 180.123C681.958 179.95 682.022 179.742 682.013 179.531C682.004 179.319 681.922 179.117 681.78 178.954C681.447 178.676 681.043 178.488 680.609 178.409C680.175 178.33 679.726 178.363 679.31 178.504C678.424 178.665 677.632 179.136 677.09 179.826C676.977 179.991 676.915 180.183 676.913 180.38C676.91 180.578 676.968 180.771 677.077 180.938C677.187 181.105 677.345 181.238 677.532 181.321C677.718 181.404 677.926 181.434 678.13 181.407Z" fill="#263238"/>
<path d="M696.89 185.335C696.245 185.267 695.604 185.165 694.97 185.028C694.285 185.01 693.625 184.778 693.09 184.367C692.947 184.206 692.863 184.004 692.852 183.793C692.841 183.581 692.904 183.372 693.03 183.199C693.336 182.892 693.721 182.67 694.146 182.554C694.572 182.437 695.022 182.432 695.45 182.537C696.348 182.626 697.179 183.033 697.78 183.678C697.911 183.831 697.993 184.017 698.015 184.214C698.036 184.411 697.998 184.61 697.903 184.786C697.808 184.962 697.662 185.108 697.482 185.206C697.302 185.303 697.096 185.348 696.89 185.335Z" fill="#263238"/>
<path d="M682.27 190.154C682.27 190.086 682.13 190.249 682.13 190.326C682.32 192.146 682.22 194.263 680.54 194.982C680.48 194.982 680.54 195.097 680.54 195.087C682.64 194.666 682.75 191.849 682.27 190.154Z" fill="#263238"/>
<path d="M680.43 188.353C677.35 188.353 677.52 194.235 680.38 194.263C683.24 194.292 683 188.381 680.43 188.353Z" fill="#263238"/>
<path d="M679.16 188.784C678.68 189.109 678.22 189.684 677.63 189.742C677.04 189.799 676.44 189.176 675.99 188.573C675.99 188.515 675.9 188.573 675.9 188.64C675.9 189.77 676.33 190.939 677.46 191.121C678.59 191.303 679.23 190.307 679.46 189.205C679.53 188.966 679.35 188.65 679.16 188.784Z" fill="#263238"/>
<path d="M694.82 205.798C694.35 206.21 693.87 206.756 693.17 206.823C692.472 206.778 691.791 206.596 691.17 206.286C691.157 206.28 691.141 206.278 691.126 206.281C691.111 206.284 691.098 206.291 691.088 206.302C691.077 206.313 691.071 206.326 691.07 206.341C691.069 206.355 691.072 206.37 691.08 206.382C691.341 206.753 691.702 207.049 692.125 207.238C692.548 207.427 693.016 207.502 693.48 207.455C693.875 207.375 694.236 207.182 694.514 206.901C694.793 206.621 694.976 206.266 695.04 205.884C695 205.779 694.89 205.74 694.82 205.798Z" fill="#263238"/>
<path d="M685.26 198.45C685.26 198.45 685.04 201.19 685.11 202.473C687.729 202.336 690.355 202.555 692.91 203.125C693.51 203.278 693.47 202.809 692.79 202.464C690.765 201.453 688.469 201.046 686.2 201.295C686.08 200.941 686.63 197.08 686.42 197.08C685.386 197.225 684.377 197.502 683.42 197.904C683.72 192.156 684.98 186.561 685.19 180.861C685.193 180.819 685.18 180.778 685.153 180.745C685.127 180.711 685.089 180.689 685.046 180.68C685.003 180.672 684.959 180.679 684.921 180.7C684.883 180.721 684.854 180.754 684.84 180.794C683.08 186.609 682.58 193.181 682.11 199.082C682.05 199.81 684.74 198.699 685.26 198.45Z" fill="#263238"/>
<path d="M698.61 190.249C697.487 189.828 696.259 189.734 695.08 189.981C694.448 190.119 693.851 190.372 693.32 190.728C692.773 191.12 692.326 191.624 692.01 192.204L691.42 193.248L692.63 193.123C693.481 193.037 694.339 193.037 695.19 193.123C696.078 193.198 696.932 193.488 697.67 193.966C697.187 193.12 696.375 192.49 695.41 192.213C694.47 191.916 693.476 191.808 692.49 191.897L693.11 192.855C693.628 192.024 694.424 191.385 695.37 191.045C696.412 190.652 697.5 190.385 698.61 190.249Z" fill="#263238"/>
<path d="M695.14 195.01C694.235 194.807 693.363 194.485 692.55 194.052C692.36 193.938 691.63 193.411 691.67 193.257C691.773 192.812 691.935 192.381 692.15 191.974C691.814 192.335 691.559 192.759 691.4 193.219C691.456 193.472 691.569 193.711 691.732 193.918C691.894 194.125 692.102 194.295 692.34 194.417C693.2 194.854 694.168 195.059 695.14 195.01Z" fill="#263238"/>
<path d="M688.5 202.282C688.5 202.282 690.24 204.677 692.24 204.964C694.54 205.309 694.81 203.326 692.24 202.196C690.94 201.611 688.5 202.282 688.5 202.282Z" fill="#263238"/>
<path d="M692.23 205.012C691.358 204.839 690.557 204.43 689.92 203.834C690.4 203.153 691.5 202.397 693.97 203.671C694.33 204.476 693.69 205.184 692.23 205.012Z" fill="#FF99BA"/>
<path d="M723.55 193.928C718.93 194.484 717.39 185.22 717.39 185.22C717.39 185.22 707.97 185.68 704.2 172.843C704.668 176.721 706.308 180.384 708.92 183.381C708.92 183.381 692.21 182.423 684.54 169.461C684.54 169.461 687.68 176.119 690.42 178.409C690.42 178.409 683.35 176.876 679.68 171.607C679.68 171.607 677.16 179.434 675.03 181.666C675.03 181.666 674.3 153.778 701.39 155.484C701.39 155.484 718.31 155.771 725.02 168.282C731.73 180.794 723.55 193.928 723.55 193.928Z" fill="#263238"/>
<path d="M719.23 195.231C719.23 195.231 724.82 186.503 728.92 188.362C733.02 190.22 729.18 202.636 724.63 204.562C724.064 204.848 723.444 205.022 722.806 205.073C722.168 205.124 721.526 205.051 720.919 204.857C720.311 204.664 719.751 204.355 719.272 203.948C718.793 203.542 718.404 203.047 718.13 202.492L719.23 195.231Z" fill="#DD6A57"/>
<path d="M727.73 191.897C727.8 191.897 727.82 191.983 727.73 192.012C724.54 193.468 723.01 196.467 721.99 199.551C722.89 198.335 724.17 197.635 725.86 198.593C725.95 198.641 725.86 198.775 725.78 198.766C725.196 198.622 724.579 198.657 724.017 198.865C723.454 199.072 722.973 199.443 722.64 199.925C722.08 200.728 721.617 201.589 721.26 202.492C721.12 202.78 720.59 202.665 720.68 202.339C720.674 202.314 720.674 202.288 720.68 202.263C720.4 198.306 723.28 192.558 727.73 191.897Z" fill="#263238"/>
<path d="M722 203.163C722.014 203.411 722.105 203.65 722.261 203.848C722.417 204.047 722.631 204.196 722.876 204.278C723.121 204.36 723.385 204.371 723.636 204.309C723.887 204.247 724.113 204.114 724.286 203.929C724.459 203.743 724.57 203.513 724.606 203.267C724.641 203.021 724.6 202.77 724.487 202.547C724.374 202.323 724.194 202.137 723.97 202.011C723.747 201.885 723.489 201.826 723.23 201.841C723.058 201.85 722.89 201.891 722.735 201.962C722.58 202.033 722.441 202.133 722.327 202.256C722.213 202.379 722.125 202.523 722.069 202.678C722.013 202.834 721.989 202.999 722 203.163Z" fill="white"/>
<path d="M725.14 201.084C725.148 201.243 725.206 201.397 725.305 201.525C725.404 201.653 725.541 201.749 725.698 201.803C725.855 201.856 726.025 201.864 726.186 201.824C726.347 201.785 726.493 201.701 726.604 201.582C726.715 201.463 726.787 201.316 726.811 201.158C726.834 201 726.808 200.839 726.736 200.695C726.664 200.552 726.548 200.432 726.405 200.351C726.261 200.27 726.096 200.232 725.93 200.241C725.82 200.246 725.712 200.272 725.613 200.317C725.513 200.362 725.424 200.426 725.351 200.504C725.277 200.583 725.221 200.674 725.185 200.774C725.148 200.873 725.133 200.979 725.14 201.084Z" fill="white"/>
<path d="M634.141 253.367L619.618 256.6L630.065 299.674L644.588 296.441L634.141 253.367Z" fill="#EBEBEB"/>
<path d="M598.74 139.035C586.606 141.739 575.582 147.829 567.06 156.535C558.539 165.241 552.903 176.171 550.865 187.945C548.827 199.719 550.478 211.807 555.61 222.682C560.743 233.557 569.125 242.73 579.698 249.042C590.271 255.353 602.56 258.52 615.012 258.142C627.463 257.764 639.518 253.858 649.653 246.918C659.788 239.977 667.547 230.314 671.95 219.15C676.353 207.986 677.202 195.821 674.39 184.195C672.521 176.469 669.082 169.172 664.268 162.72C659.454 156.269 653.36 150.79 646.334 146.596C639.309 142.402 631.489 139.575 623.323 138.278C615.156 136.98 606.803 137.238 598.74 139.035ZM624.26 244.29C614.673 246.426 604.64 245.791 595.43 242.464C586.22 239.137 578.247 233.268 572.52 225.599C566.792 217.931 563.567 208.807 563.252 199.382C562.938 189.958 565.548 180.656 570.753 172.652C575.958 164.649 583.523 158.304 592.492 154.42C601.462 150.537 611.432 149.289 621.142 150.834C630.851 152.379 639.865 156.648 647.041 163.102C654.218 169.555 659.236 177.902 661.46 187.088C664.441 199.399 662.197 212.34 655.221 223.067C648.245 233.793 637.109 241.427 624.26 244.29Z" fill="#A6A6A6"/>
<path d="M639.098 284.252L629.357 286.42C625.984 287.171 623.885 290.399 624.669 293.63L637.127 345C637.911 348.231 641.28 350.242 644.653 349.491L654.394 347.323C657.767 346.572 659.866 343.344 659.082 340.113L646.624 288.743C645.84 285.512 642.471 283.501 639.098 284.252Z" fill="#263238"/>
<g opacity="0.3">
<path d="M661.46 187.069C663.683 196.251 663.014 205.858 659.538 214.676C656.061 223.493 649.934 231.126 641.93 236.608C633.927 242.089 624.406 245.175 614.572 245.473C604.738 245.772 595.032 243.27 586.682 238.284C578.332 233.299 571.713 226.054 567.661 217.464C563.609 208.875 562.307 199.328 563.918 190.029C565.53 180.731 569.984 172.099 576.716 165.225C583.448 158.352 592.156 153.545 601.74 151.412C608.105 149.994 614.7 149.792 621.147 150.817C627.594 151.842 633.767 154.074 639.313 157.385C644.859 160.697 649.669 165.022 653.469 170.116C657.27 175.209 659.985 180.97 661.46 187.069Z" fill="white"/>
<path d="M662.68 200.5C661.946 213.047 656.071 224.809 646.334 233.23C636.597 241.65 623.784 246.048 610.68 245.468L662.68 200.5Z" fill="#EBEBEB"/>
<path d="M639.79 157.687L568.56 219.277C566.788 215.895 565.445 212.321 564.56 208.633C563.524 204.408 563.106 200.065 563.32 195.729L615.91 150.253C624.403 150.731 632.626 153.291 639.79 157.687Z" fill="#EBEBEB"/>
<path d="M660.09 182.499L592.24 241.157C589.275 239.852 586.451 238.27 583.81 236.434L656.06 173.973C657.702 176.677 659.052 179.533 660.09 182.499Z" fill="#EBEBEB"/>
<path d="M645.26 161.576L572 224.9C571.66 224.421 571.32 223.942 571 223.453L643.84 160.484C644.34 160.829 644.81 161.183 645.26 161.576Z" fill="#EBEBEB"/>
<path d="M599.32 152.015L566.82 180.104C567.37 178.772 567.99 177.469 568.67 176.205L595.1 153.347C596.47 152.858 597.88 152.408 599.32 152.015Z" fill="#EBEBEB"/>
</g>
<path d="M577.68 206.094C577.675 206.031 577.675 205.967 577.68 205.903C577.5 204.945 577.81 206.813 577.68 206.19C577.55 205.568 577.48 204.715 577.42 203.977C577.19 201.376 577.19 198.761 577.42 196.16C577.42 195.786 577.49 195.422 577.52 195.058C577.52 194.943 577.41 195.921 577.52 195.145L577.61 194.474C577.73 193.612 577.88 192.75 578.06 191.897C578.439 190.017 578.951 188.164 579.59 186.35C579.74 185.919 579.91 185.488 580.07 185.057C580.28 184.472 579.79 185.699 580.12 184.932L580.45 184.175C580.88 183.217 581.35 182.259 581.85 181.301C582.35 180.343 583 179.318 583.63 178.37C583.93 177.929 584.23 177.498 584.54 177.067C585.07 176.329 584.29 177.364 584.7 176.847L585.29 176.1C587.111 173.906 589.147 171.885 591.37 170.064C591.37 170.064 591.83 169.71 591.49 169.978C591.15 170.246 591.67 169.834 591.73 169.786L592.73 169.029C593.4 168.55 594.08 168.071 594.78 167.65C596.246 166.711 597.762 165.845 599.32 165.054C599.738 164.802 600.1 164.474 600.385 164.089C600.67 163.703 600.873 163.267 600.983 162.807C601.093 162.346 601.106 161.869 601.023 161.403C600.941 160.937 600.763 160.491 600.5 160.091C600.238 159.691 599.895 159.345 599.493 159.071C599.09 158.798 598.636 158.603 598.155 158.498C597.674 158.393 597.176 158.38 596.689 158.46C596.203 158.539 595.738 158.709 595.32 158.961C585.44 164.01 577.32 171.98 573.24 182.03C570.478 188.788 569.3 196.045 569.79 203.288C569.89 204.896 570.104 206.497 570.43 208.078C570.715 208.989 571.365 209.756 572.238 210.21C573.111 210.664 574.137 210.769 575.09 210.501C576.028 210.205 576.812 209.577 577.283 208.746C577.753 207.914 577.874 206.942 577.62 206.027L577.68 206.094Z" fill="white"/>
<path d="M581 216.288C581.207 216.956 581.202 217.668 580.987 218.334C580.772 219 580.355 219.589 579.79 220.028C579.225 220.467 578.537 220.736 577.812 220.801C577.088 220.865 576.36 220.722 575.72 220.39C575.08 220.058 574.557 219.552 574.218 218.936C573.878 218.319 573.737 217.62 573.812 216.927C573.887 216.234 574.174 215.577 574.639 215.041C575.103 214.504 575.723 214.111 576.42 213.912C576.884 213.778 577.37 213.734 577.852 213.781C578.333 213.828 578.801 213.966 579.226 214.187C579.652 214.407 580.028 214.707 580.332 215.067C580.637 215.428 580.864 215.843 581 216.288Z" fill="white"/>
<path d="M740.13 246.493C749.13 277.667 753.45 308.965 748.47 325.107C745.29 335.396 737.62 342.351 732.74 344.65C721.33 350.053 683.48 342.389 658.82 337.638C652.76 336.469 667.05 289.69 673.14 292.171C682.14 295.821 709.69 300.745 710.45 300.984C712.08 301.521 715.45 267.694 717.83 247.863C721.12 220.235 734.94 228.493 740.13 246.493Z" fill="#DD6A57"/>
<path d="M611.43 283.261C608.75 287.448 612.23 291.28 612.23 291.28C609.946 292.374 608.134 294.202 607.11 296.443C605.5 300.467 611.38 304.654 611.38 304.654C609.258 306.26 607.693 308.444 606.89 310.919C605.75 314.923 611.06 319.953 611.06 319.953C609.964 322.461 609.846 325.263 610.73 327.847C613.38 334.658 624.73 336.89 631.93 338.385C639.13 339.879 661.01 337.618 665.23 337.599L675.58 293.407C675.58 293.407 645.27 277.935 636.58 277.341C629.19 276.862 614.44 278.567 611.43 283.261Z" fill="#DD6A57"/>
<path d="M612.71 290.638C620.71 289.383 628.57 290.437 636.52 291.06C636.557 291.06 636.593 291.074 636.619 291.099C636.645 291.124 636.66 291.158 636.66 291.194C636.66 291.229 636.645 291.263 636.619 291.289C636.593 291.314 636.557 291.328 636.52 291.328C628.61 290.619 620.66 291.414 612.75 291.012C612.704 291.007 612.661 290.988 612.628 290.957C612.596 290.926 612.575 290.885 612.571 290.841C612.566 290.797 612.577 290.752 612.603 290.715C612.628 290.679 612.666 290.651 612.71 290.638Z" fill="#263238"/>
<path d="M611.67 304.108C613.504 303.985 615.347 304.098 617.15 304.443C619.077 304.686 621 304.96 622.92 305.267C626.767 305.906 630.593 306.611 634.4 307.384C634.57 307.384 634.56 307.671 634.4 307.643C630.56 307.039 626.72 306.493 622.87 306.043C620.94 305.813 619.01 305.612 617.07 305.411C615.235 305.339 613.414 305.073 611.64 304.615C611.586 304.595 611.539 304.558 611.508 304.51C611.476 304.463 611.461 304.407 611.465 304.351C611.468 304.295 611.489 304.241 611.526 304.198C611.563 304.154 611.614 304.123 611.67 304.108Z" fill="#263238"/>
<path d="M611.22 319.972C612.78 319.713 614.6 320.25 616.14 320.528C617.89 320.844 619.63 321.141 621.38 321.438C624.88 322.032 628.38 322.616 631.9 323.095C632.07 323.095 632.05 323.383 631.9 323.354C628.32 322.894 624.74 322.473 621.17 321.984C619.42 321.744 617.66 321.486 615.91 321.227C614.42 321.007 612.54 320.892 611.21 320.145C611.193 320.136 611.18 320.123 611.171 320.107C611.162 320.091 611.157 320.073 611.158 320.055C611.159 320.037 611.166 320.02 611.177 320.005C611.188 319.991 611.203 319.979 611.22 319.972Z" fill="#263238"/>
<path d="M621.31 278.682C617.68 279.133 613.52 279.899 611.17 282.859C610.084 284.115 609.549 285.726 609.68 287.352C609.887 288.871 610.687 290.257 611.92 291.232C610.469 291.68 609.18 292.511 608.2 293.629C607.22 294.748 606.589 296.108 606.38 297.555C606.319 298.279 606.415 299.008 606.661 299.695C606.907 300.382 607.298 301.014 607.81 301.55C608.31 302.115 608.88 302.613 609.43 303.13C609.98 303.648 610.59 304.088 611.16 304.539C610.544 305 609.965 305.506 609.43 306.052C608.83 306.605 608.29 307.215 607.82 307.873C606.847 309.176 606.297 310.726 606.24 312.327C606.323 313.919 606.901 315.45 607.9 316.724C608.712 318.042 609.857 319.142 611.23 319.924C611.247 319.932 611.267 319.934 611.285 319.929C611.304 319.925 611.32 319.914 611.331 319.899C611.342 319.884 611.346 319.866 611.344 319.847C611.343 319.829 611.334 319.812 611.32 319.8C610.241 318.856 609.326 317.753 608.61 316.533C607.745 315.231 607.271 313.726 607.24 312.184C607.372 310.721 607.888 309.314 608.74 308.093C609.164 307.431 609.624 306.791 610.12 306.177C610.614 305.675 611.075 305.143 611.5 304.587C611.5 304.587 610.31 303.38 609.89 302.862C609.47 302.345 609.06 301.789 608.68 301.224C607.875 300.151 607.518 298.829 607.68 297.517C607.916 296.292 608.497 295.152 609.36 294.221C610.2 293.263 611.29 292.506 612.17 291.567C612.202 291.518 612.222 291.462 612.231 291.405C612.239 291.347 612.236 291.288 612.22 291.232C610.22 288.243 610.47 285.407 612.61 283.194C613.7 282.121 614.976 281.237 616.38 280.579C617.996 279.875 619.668 279.295 621.38 278.845C621.45 278.836 621.42 278.673 621.31 278.682Z" fill="#263238"/>
<path d="M687.61 343.05C685.48 342.418 683.23 342.092 681.05 341.633C678.87 341.173 676.67 340.742 674.47 340.32C672.27 339.899 669.98 339.477 667.74 339.075C665.5 338.672 663.41 338.222 661.23 337.973C659.125 337.778 657.004 337.823 654.91 338.107C652.797 338.337 650.677 338.5 648.55 338.596C644.265 338.794 639.972 338.704 635.7 338.327C630.867 337.898 626.08 337.08 621.39 335.885C621.29 335.885 621.26 336 621.39 336.028C629.522 338.629 638.047 339.924 646.62 339.86C648.74 339.86 650.87 339.736 652.98 339.535C655.088 339.248 657.212 339.075 659.34 339.017C661.59 339.16 663.825 339.48 666.02 339.975C668.23 340.368 670.43 340.77 672.64 341.144C675.14 341.565 677.64 341.997 680.15 342.37C682.66 342.744 685.15 343.28 687.61 343.453C687.79 343.414 687.8 343.098 687.61 343.05Z" fill="#263238"/>
<path d="M718.67 302.92C715.47 301.875 712.09 301.224 708.8 300.467C705.51 299.71 702.18 298.982 698.87 298.264C692.55 296.894 686.15 295.735 679.87 294.058C678.22 293.618 676.59 293.1 674.98 292.583C674.17 292.305 673.38 291.998 672.59 291.625C671.8 291.251 670.89 291.021 670.11 290.667C670.02 290.609 669.95 290.743 670.04 290.801C670.67 291.175 671.25 291.625 671.9 291.989C672.55 292.353 673.34 292.717 674.08 293.043C675.433 293.635 676.818 294.156 678.23 294.604C681.17 295.562 684.23 296.223 687.23 296.894C693.83 298.34 700.44 299.768 707.06 301.138C708.92 301.521 710.79 301.904 712.66 302.259C714.53 302.613 716.57 303.054 718.55 303.265C718.597 303.277 718.647 303.272 718.69 303.25C718.733 303.228 718.766 303.191 718.781 303.147C718.796 303.102 718.793 303.054 718.773 303.012C718.752 302.97 718.715 302.937 718.67 302.92Z" fill="#263238"/>
<path d="M708.26 291.328L754 297.287C754 297.287 745.64 251.734 736.75 236.645C727.98 221.758 718.3 231.597 714.61 249.607C710.47 269.572 708.26 291.328 708.26 291.328Z" fill="#37474F"/>
<path d="M750.57 290.686C749.29 290.399 747.98 290.217 746.7 289.948C745.42 289.68 744.19 289.498 742.93 289.307C740.36 288.923 737.78 288.578 735.2 288.243C730.12 287.573 725.05 286.835 719.95 286.327C717.05 286.021 714.16 285.609 711.26 285.369C711.239 285.369 711.219 285.377 711.204 285.392C711.189 285.406 711.18 285.425 711.18 285.446C711.18 285.466 711.189 285.486 711.204 285.5C711.219 285.514 711.239 285.522 711.26 285.522C716.31 286.653 721.46 287.496 726.58 288.291C731.7 289.086 736.74 289.833 741.84 290.37C743.27 290.514 744.7 290.696 746.14 290.763C747.58 290.83 749.09 290.954 750.56 290.983C750.601 290.984 750.641 290.97 750.671 290.943C750.701 290.916 750.719 290.879 750.72 290.839C750.722 290.8 750.706 290.762 750.678 290.733C750.65 290.704 750.611 290.687 750.57 290.686Z" fill="#263238"/>
<path d="M775.63 125.412C775.043 130.801 772.904 135.928 769.452 140.22C766.001 144.513 761.372 147.802 756.082 149.72C750.792 151.639 745.05 152.112 739.496 151.086C733.943 150.06 728.796 147.576 724.63 143.911L709.35 146.066L717 133.411C715.246 129.292 714.495 124.844 714.805 120.405C715.115 115.966 716.477 111.654 718.789 107.795C721.1 103.937 724.299 100.634 728.143 98.1386C731.987 95.6428 736.375 94.0197 740.972 93.3927C745.57 92.7656 750.256 93.1512 754.674 94.5201C759.092 95.8889 763.127 98.205 766.47 101.292C769.814 104.379 772.378 108.156 773.969 112.336C775.56 116.515 776.135 120.987 775.65 125.412H775.63Z" fill="white"/>
<path d="M775.63 125.412C775.045 130.805 772.913 135.938 769.47 140.242C767.779 142.408 765.757 144.317 763.47 145.903C758.927 149.17 753.534 151.179 747.88 151.709C746.471 151.835 745.053 151.861 743.64 151.785C742.224 151.756 740.812 151.615 739.42 151.364C733.789 150.376 728.557 147.904 724.31 144.227L724.67 144.332L709.42 146.574L708.31 146.737L708.87 145.779L716.47 133.104V133.603C714.25 128.368 713.639 122.634 714.71 117.077C715.781 111.52 718.49 106.373 722.516 102.244C726.541 98.1141 731.717 95.1741 737.43 93.7709C743.144 92.3677 749.157 92.5598 754.76 94.3246C759.173 95.7608 763.194 98.1241 766.53 101.241C769.859 104.346 772.409 108.135 773.985 112.323C775.562 116.51 776.124 120.986 775.63 125.412ZM775.63 125.412C776.112 121.01 775.533 116.561 773.939 112.407C772.344 108.254 769.776 104.506 766.432 101.452C763.088 98.3984 759.057 96.1205 754.65 94.7935C750.243 93.4664 745.576 93.1258 741.01 93.7977C736.477 94.4516 732.16 96.0901 728.39 98.5877C724.656 101.107 721.54 104.376 719.26 108.168C717.008 111.96 715.681 116.192 715.38 120.545C715.103 124.892 715.837 129.244 717.53 133.286L717.64 133.555L717.5 133.794L709.81 146.421L709.26 145.645L724.55 143.595H724.76L724.91 143.729C728.995 147.386 734.06 149.883 739.54 150.942C740.904 151.21 742.289 151.374 743.68 151.431C745.072 151.522 746.468 151.522 747.86 151.431C750.647 151.223 753.391 150.642 756.01 149.707C758.651 148.786 761.135 147.494 763.38 145.875C764.509 145.082 765.585 144.221 766.6 143.298C767.59 142.347 768.518 141.339 769.38 140.28C772.861 135.974 775.025 130.827 775.63 125.412Z" fill="#263238"/>
<path d="M730.33 136.036C730.311 135.647 730.375 135.259 730.517 134.895C730.659 134.531 730.877 134.198 731.158 133.916C731.438 133.635 731.775 133.411 732.149 133.259C732.522 133.106 732.924 133.027 733.33 133.028C734.163 133.028 734.961 133.345 735.55 133.909C736.139 134.473 736.47 135.238 736.47 136.036C736.47 136.834 736.139 137.599 735.55 138.163C734.961 138.727 734.163 139.044 733.33 139.044C732.924 139.044 732.522 138.966 732.149 138.813C731.775 138.66 731.438 138.437 731.158 138.155C730.877 137.874 730.659 137.541 730.517 137.177C730.375 136.813 730.311 136.424 730.33 136.036ZM731.6 129.1L730.89 105.811H735.75L735 129.071L731.6 129.1Z" fill="#F27777"/>
<path d="M742 136.036C741.981 135.647 742.045 135.259 742.187 134.895C742.329 134.531 742.547 134.198 742.828 133.916C743.108 133.635 743.445 133.411 743.819 133.259C744.192 133.106 744.594 133.027 745 133.028C745.833 133.028 746.632 133.345 747.22 133.909C747.809 134.473 748.14 135.238 748.14 136.036C748.14 136.834 747.809 137.599 747.22 138.163C746.632 138.727 745.833 139.044 745 139.044C744.594 139.044 744.192 138.966 743.819 138.813C743.445 138.66 743.108 138.437 742.828 138.155C742.547 137.874 742.329 137.541 742.187 137.177C742.045 136.813 741.981 136.424 742 136.036ZM743.27 129.1L742.56 105.811H747.42L746.71 129.1H743.27Z" fill="#F27777"/>
<path d="M753.63 136.036C753.611 135.647 753.675 135.259 753.817 134.895C753.959 134.531 754.177 134.198 754.458 133.916C754.738 133.635 755.075 133.411 755.449 133.259C755.822 133.106 756.224 133.027 756.63 133.028C757.463 133.028 758.261 133.345 758.85 133.909C759.439 134.473 759.77 135.238 759.77 136.036C759.77 136.834 759.439 137.599 758.85 138.163C758.261 138.727 757.463 139.044 756.63 139.044C756.224 139.044 755.822 138.966 755.449 138.813C755.075 138.66 754.738 138.437 754.458 138.155C754.177 137.874 753.959 137.541 753.817 137.177C753.675 136.813 753.611 136.424 753.63 136.036ZM754.9 129.1L754.19 105.811H759.05L758.34 129.1H754.9Z" fill="#F27777"/>
</svg>
