<svg width="180" height="44" viewBox="0 0 180 44" fill="none" xmlns="http://www.w3.org/2000/svg">
<g clip-path="url(#clip0_175_3331)">
<path d="M14.5 42H26.5C36.5 42 40.5 38 40.5 28V16C40.5 6 36.5 2 26.5 2H14.5C4.5 2 0.5 6 0.5 16V28C0.5 38 4.5 42 14.5 42Z" stroke="#F2DCC9" stroke-width="1.5" stroke-linecap="round" stroke-linejoin="round"/>
<path d="M20.5 13.3937V31.3749M32.5 26.8796V12.4157C32.5 10.9674 31.3339 9.91407 29.9044 10.027H29.8292C27.3088 10.2339 23.4906 11.5317 21.3464 12.8671L21.1395 12.9987C20.8009 13.2056 20.2179 13.2056 19.8605 12.9987L19.5596 12.8107C17.4342 11.4752 13.616 10.215 11.0956 10.0082C9.66614 9.89526 8.5 10.9674 8.5 12.3969V26.8796C8.5 28.027 9.44044 29.1179 10.5878 29.2495L10.9263 29.306C13.5219 29.6445 17.547 30.9799 19.8417 32.2401L19.8981 32.2589C20.2179 32.447 20.7445 32.447 21.0455 32.2589C23.3401 30.9799 27.384 29.6633 29.9984 29.306L30.3934 29.2495C31.5596 29.1179 32.5 28.0458 32.5 26.8796Z" stroke="#F2DCC9" stroke-width="1.5" stroke-linecap="round" stroke-linejoin="round"/>
<path d="M50.145 34.4999V33.6599L53.12 32.9599V9.35241L50.145 8.68741V7.84741H60.3475V8.68741L57.0575 9.35241V33.0474H66.875C67.505 31.9857 68.0475 30.9182 68.5025 29.8449C68.9575 28.7716 69.395 27.5699 69.815 26.2399H70.8475L69.535 34.4999H50.145ZM77.2796 34.8674C76.0312 34.8674 75.0162 34.4766 74.2346 33.6949C73.4646 32.9132 73.0796 31.8982 73.0796 30.6499C73.0796 29.6232 73.3946 28.7366 74.0246 27.9899C74.6546 27.2432 75.6696 26.5899 77.0696 26.0299C78.4812 25.4582 80.3421 24.9391 82.6521 24.4724V21.1999C82.6521 19.7182 82.4479 18.6799 82.0396 18.0849C81.6429 17.4899 80.9546 17.1924 79.9746 17.1924C79.0062 17.1924 78.2362 17.4257 77.6646 17.8924C77.0929 18.3591 76.8071 18.9891 76.8071 19.7824C76.8071 20.0041 76.8187 20.2257 76.8421 20.4474C76.8771 20.6574 76.8946 20.8616 76.8946 21.0599C76.8946 21.6549 76.7137 22.1449 76.3521 22.5299C76.0021 22.9149 75.5529 23.1074 75.0046 23.1074C74.5029 23.1074 74.0946 22.9441 73.7796 22.6174C73.4762 22.2907 73.3246 21.8649 73.3246 21.3399C73.3246 20.5816 73.6512 19.8057 74.3046 19.0124C74.9696 18.2074 75.8446 17.5191 76.9296 16.9474C78.3762 16.1774 79.9454 15.7924 81.6371 15.7924C82.6521 15.7924 83.5096 15.9499 84.2096 16.2649C84.9212 16.5799 85.4346 17.0291 85.7496 17.6124C85.9362 18.0091 86.0587 18.5107 86.1171 19.1174C86.1871 19.7241 86.2221 20.7391 86.2221 22.1624V29.9849C86.2221 31.1166 86.3096 31.8866 86.4846 32.2949C86.6712 32.7032 87.0154 32.9074 87.5171 32.9074C88.0887 32.9074 88.6429 32.5807 89.1796 31.9274L89.8096 32.5224C89.2379 33.3507 88.6546 33.9516 88.0596 34.3249C87.4762 34.6866 86.7937 34.8674 86.0121 34.8674C85.0671 34.8674 84.3321 34.6107 83.8071 34.0974C83.2821 33.5841 82.9321 32.8024 82.7571 31.7524H82.6521C81.9871 32.7091 81.1821 33.4674 80.2371 34.0274C79.2921 34.5874 78.3062 34.8674 77.2796 34.8674ZM79.0296 32.6449C79.7529 32.6449 80.4296 32.4582 81.0596 32.0849C81.6896 31.6999 82.2204 31.1691 82.6521 30.4924V25.5574C81.0887 25.8607 79.8579 26.1932 78.9596 26.5549C78.0729 26.9166 77.4429 27.3599 77.0696 27.8849C76.7079 28.3982 76.5271 29.0457 76.5271 29.8274C76.5271 30.7257 76.7371 31.4199 77.1571 31.9099C77.5887 32.3999 78.2129 32.6449 79.0296 32.6449ZM98.3091 34.8674C96.5591 34.8674 95.2816 34.4649 94.4766 33.6599C93.6716 32.8432 93.2691 31.6649 93.2691 30.1249V17.4549L90.6791 16.9124V16.1424H96.8391V28.7249C96.8391 30.2532 97.1074 31.3032 97.6441 31.8749C98.1924 32.4466 99.0558 32.7324 100.234 32.7324C101.039 32.7324 101.827 32.5224 102.597 32.1024C103.367 31.6824 104.078 31.0232 104.732 30.1249V31.5249C103.845 32.6099 102.847 33.4382 101.739 34.0099C100.631 34.5816 99.4874 34.8674 98.3091 34.8674ZM104.609 34.8674V31.4199L104.417 31.3499V17.4549L101.844 16.9124V16.1424H107.987V31.8399L110.367 32.6799V33.1524L104.907 34.8674H104.609ZM112.544 34.4999V33.7299L115.169 33.1874V18.9249L112.614 17.9624V17.4549L118.214 15.7749H118.599V19.5549L118.739 19.7299V33.1874L122.344 33.7299V34.4999H112.544ZM118.476 21.1649L118.406 19.7299C119.27 18.4582 120.127 17.4782 120.979 16.7899C121.842 16.1016 122.647 15.7574 123.394 15.7574C124.036 15.7574 124.578 15.9791 125.021 16.4224C125.465 16.8541 125.686 17.3791 125.686 17.9974C125.686 18.5691 125.494 19.0532 125.109 19.4499C124.724 19.8349 124.246 20.0274 123.674 20.0274C123.091 20.0274 122.636 19.8116 122.309 19.3799C122.076 19.1116 121.877 18.9307 121.714 18.8374C121.551 18.7324 121.364 18.6799 121.154 18.6799C120.816 18.6799 120.39 18.9074 119.876 19.3624C119.375 19.8057 118.908 20.4066 118.476 21.1649ZM131.865 34.8674C130.616 34.8674 129.601 34.4766 128.82 33.6949C128.05 32.9132 127.665 31.8982 127.665 30.6499C127.665 29.6232 127.98 28.7366 128.61 27.9899C129.24 27.2432 130.255 26.5899 131.655 26.0299C133.066 25.4582 134.927 24.9391 137.237 24.4724V21.1999C137.237 19.7182 137.033 18.6799 136.625 18.0849C136.228 17.4899 135.54 17.1924 134.56 17.1924C133.591 17.1924 132.821 17.4257 132.25 17.8924C131.678 18.3591 131.392 18.9891 131.392 19.7824C131.392 20.0041 131.404 20.2257 131.427 20.4474C131.462 20.6574 131.48 20.8616 131.48 21.0599C131.48 21.6549 131.299 22.1449 130.937 22.5299C130.587 22.9149 130.138 23.1074 129.59 23.1074C129.088 23.1074 128.68 22.9441 128.365 22.6174C128.061 22.2907 127.91 21.8649 127.91 21.3399C127.91 20.5816 128.236 19.8057 128.89 19.0124C129.555 18.2074 130.43 17.5191 131.515 16.9474C132.961 16.1774 134.53 15.7924 136.222 15.7924C137.237 15.7924 138.095 15.9499 138.795 16.2649C139.506 16.5799 140.02 17.0291 140.335 17.6124C140.521 18.0091 140.644 18.5107 140.702 19.1174C140.772 19.7241 140.807 20.7391 140.807 22.1624V29.9849C140.807 31.1166 140.895 31.8866 141.07 32.2949C141.256 32.7032 141.6 32.9074 142.102 32.9074C142.674 32.9074 143.228 32.5807 143.765 31.9274L144.395 32.5224C143.823 33.3507 143.24 33.9516 142.645 34.3249C142.061 34.6866 141.379 34.8674 140.597 34.8674C139.652 34.8674 138.917 34.6107 138.392 34.0974C137.867 33.5841 137.517 32.8024 137.342 31.7524H137.237C136.572 32.7091 135.767 33.4674 134.822 34.0274C133.877 34.5874 132.891 34.8674 131.865 34.8674ZM133.615 32.6449C134.338 32.6449 135.015 32.4582 135.645 32.0849C136.275 31.6999 136.805 31.1691 137.237 30.4924V25.5574C135.674 25.8607 134.443 26.1932 133.545 26.5549C132.658 26.9166 132.028 27.3599 131.655 27.8849C131.293 28.3982 131.112 29.0457 131.112 29.8274C131.112 30.7257 131.322 31.4199 131.742 31.9099C132.174 32.3999 132.798 32.6449 133.615 32.6449ZM156.937 34.4999V33.7299L159.492 33.2224V21.9874C159.492 20.5991 159.212 19.5666 158.652 18.8899C158.092 18.2016 157.187 17.8574 155.939 17.8574C154.107 17.8574 152.585 18.6916 151.372 20.3599V18.9074C152.352 17.9274 153.425 17.1632 154.592 16.6149C155.758 16.0666 156.919 15.7924 158.074 15.7924C161.399 15.7924 163.062 17.3616 163.062 20.4999V33.2224L165.652 33.7299V34.4999H156.937ZM145.544 34.4999V33.7299L148.169 33.1874V18.9599L145.579 17.9974V17.4899L151.179 15.7924H151.564V18.8899L151.739 19.0649V33.1874L154.312 33.7299V34.4999H145.544ZM173.683 34.8674C172.388 34.8674 171.402 34.4999 170.726 33.7649C170.049 33.0299 169.711 31.9741 169.711 30.5974V17.4374H167.436L167.331 16.8074L172.581 11.5924L173.263 11.6624V16.1424H178.268L177.971 17.4374H173.263V30.2474C173.263 32.1607 173.952 33.1174 175.328 33.1174C175.795 33.1174 176.256 32.9949 176.711 32.7499C177.177 32.5049 177.574 32.1666 177.901 31.7349L178.513 32.2774C177.977 33.0707 177.277 33.7007 176.413 34.1674C175.562 34.6341 174.652 34.8674 173.683 34.8674Z" fill="#F2DCC9"/>
</g>
<defs>
<clipPath id="clip0_175_3331">
<rect width="180" height="44" fill="white"/>
</clipPath>
</defs>
</svg>
